<?xml version="1.0" encoding="UTF-8" standalone="no"?>
<svg
   id="svg8"
   version="1.1"
   viewBox="0 0 250 250">
  <defs
     id="defs2">
    <clipPath
       clipPathUnits="userSpaceOnUse"
       id="clipPath867">
      <path
         d="M 0,512 H 512 V 0 H 0 Z"
         id="path865" />
    </clipPath>
    <clipPath
       id="clipPath867-5"
       clipPathUnits="userSpaceOnUse">
      <path
         id="path865-9"
         d="M 0,512 H 512 V 0 H 0 Z" />
    </clipPath>
  </defs>
  <rect
     ry="31.12924"
     y="0"
     x="0"
     height="250"
     width="250"
     id="rect2791"
     style="fill:#fec500;stroke:none;stroke-width:1.13386;fill-opacity:1" />
  <g
     style="stroke-width:0.541864"
     id="g1548"
     transform="matrix(1.8454725,0,0,1.8454725,67.033581,72.790173)">
    <path
       id="path1564"
       d="m -1.662846,68.363157 c 0,-0.359368 3.8090446,-11.440586 4.9525235,-14.407811 l 1.2745296,-3.307291 3.701899,-0.07302 3.7018989,-0.07302 1.516684,4.041769 c 1.503246,4.005963 4.696214,13.359344 4.696214,13.756944 0,0.113686 -1.293418,0.206703 -2.874264,0.206703 h -2.874261 l -0.338466,-1.594917 -0.338463,-1.594916 -3.4680016,0.07356 -3.4680021,0.07356 -0.3850666,1.521354 -0.3850693,1.521354 H 1.193233 c -1.57084439,0 -2.856079,-0.06492 -2.856079,-0.144272 z M 10.77257,61.174264 c 0,-0.412123 -2.1771159,-7.101006 -2.3805593,-7.313935 -0.1685978,-0.176456 -2.6465238,6.709634 -2.6465238,7.35462 0,0.0818 1.1310937,0.14873 2.5135416,0.14873 1.3824478,0 2.5135415,-0.08523 2.5135415,-0.189415 z m 11.555052,6.775484 C 21.638618,67.586218 21.154243,67.061439 20.812081,66.307794 20.357156,65.305788 20.308637,64.499825 20.30338,57.85795 l -0.0058,-7.342187 h 2.645833 2.645833 l 0.0036,6.283854 c 0.0021,3.456119 0.07345,6.544254 0.1588,6.862524 0.227753,0.84927 1.405713,1.141121 4.605755,1.141121 h 2.837117 l 0.159072,0.992188 c 0.08749,0.545703 0.236652,1.37914 0.331473,1.852083 l 0.172387,0.859896 -5.258594,-0.0117 c -4.751329,-0.01056 -5.356277,-0.06323 -6.271249,-0.545986 z m 14.10953,-8.41933 v -9.014655 h 5.111353 c 5.77025,0 7.09549,0.247179 8.963286,1.671793 0.703681,0.536716 1.435394,1.455285 1.929903,2.42274 0.761823,1.490419 0.796285,1.70303 0.791604,4.883427 -0.0043,2.893155 -0.08389,3.501104 -0.612899,4.679371 -0.749004,1.66825 -1.884035,2.796262 -3.615539,3.593179 -1.225489,0.564022 -1.736987,0.615121 -6.945312,0.693832 l -5.622396,0.08497 z m 9.519753,4.677532 c 1.623515,-0.829464 2.165712,-1.984537 2.177301,-4.638429 0.01608,-3.681603 -1.512173,-5.349592 -4.901422,-5.349592 h -1.503966 v 5.291667 5.291666 h 1.531438 c 1.066522,0 1.885175,-0.180726 2.696649,-0.595312 z m 10.588579,-4.696354 v -8.995833 h 2.778125 2.778125 v 8.995833 8.995833 h -2.778125 -2.778125 z"
       style="fill:#fdfdfd;stroke-width:0.541864" />
    <path
       id="path1562"
       d="m -0.27378361,68.576488 c 0.83674475,-0.05251 2.20596341,-0.05251 3.04270821,0 0.8367447,0.05251 0.1521354,0.09547 -1.5213541,0.09547 -1.67348952,0 -2.3580989,-0.04296 -1.52135411,-0.09547 z M 14.023376,68.576223 c 0.842057,-0.05267 2.151745,-0.05218 2.910416,0.0011 0.758672,0.05326 0.06971,0.09635 -1.531014,0.09576 -1.600729,-5.29e-4 -2.22146,-0.04417 -1.379402,-0.09684 z m 11.962735,0.01537 c 3.853325,-0.19046 8.0104,-0.19994 7.89732,-0.01802 -0.06784,0.109141 -2.229675,0.175496 -4.804082,0.147458 -2.574406,-0.02804 -3.966363,-0.08629 -3.093238,-0.12945 z m 10.362848,0.004 c -0.09701,-0.09703 -0.17639,-4.26422 -0.17639,-9.260437 V 50.25118 l 4.43177,0.05912 4.431771,0.05912 -4.299479,0.07973 -4.299479,0.07973 v 8.982882 8.982881 l 4.431771,0.07939 4.43177,0.07939 -4.387672,0.0593 c -2.413222,0.03261 -4.46705,-0.02008 -4.564062,-0.117092 z m 21.595248,-0.01942 c 0.842057,-0.05267 2.151745,-0.05218 2.910416,0.0011 0.758672,0.05326 0.06972,0.09635 -1.531014,0.09576 -1.600729,-5.29e-4 -2.22146,-0.04417 -1.379402,-0.09684 z M 28.565798,64.607738 c 0.836745,-0.05251 2.205964,-0.05251 3.042708,0 0.836745,0.05251 0.152136,0.09547 -1.521354,0.09547 -1.673489,0 -2.358098,-0.04296 -1.521354,-0.09547 z m 19.533909,-5.250482 c 0.0127,-0.308226 0.07539,-0.370919 0.159851,-0.159853 0.07643,0.190995 0.06703,0.419201 -0.02088,0.507119 -0.08792,0.08792 -0.150453,-0.06835 -0.138964,-0.347266 z m 5.291666,0 c 0.0127,-0.308226 0.07539,-0.370919 0.159851,-0.159853 0.07643,0.190995 0.06703,0.419201 -0.02088,0.507119 -0.08792,0.08792 -0.150452,-0.06835 -0.138964,-0.347266 z M 4.6545993,50.441624 C 4.7686083,50.328089 6.459682,50.269005 8.4125424,50.31033 l 3.5506526,0.07514 -3.7579431,0.131294 c -2.0668693,0.07221 -3.6646642,0.0384 -3.5506526,-0.07514 z M 21.55434,50.320701 c 0.763985,-0.05344 2.014141,-0.05344 2.778125,0 0.763985,0.05345 0.138906,0.09718 -1.389062,0.09718 -1.527969,0 -2.153047,-0.04373 -1.389063,-0.09718 z m 36.389867,-7.93e-4 c 0.842057,-0.05267 2.151745,-0.05218 2.910416,0.0011 0.758672,0.05326 0.06972,0.09635 -1.531014,0.09576 -1.600729,-5.29e-4 -2.22146,-0.04417 -1.379402,-0.09684 z M -5.483752,37.840925 c -0.1239096,-0.200488 1.7538117,-6.093692 2.7267798,-8.557974 l 0.2872793,-0.727604 H 1.7513504 5.9723962 L 4.6797294,32.413964 C 3.968765,34.536203 3.1716442,36.641432 2.908352,37.09225 l -0.4787106,0.819668 -3.8826755,0.08427 c -2.1354732,0.04635 -3.949295,-0.02352 -4.0307179,-0.155266 z M 8.7363871,33.251701 c 0.875022,-2.510234 1.6344419,-4.616518 1.6875999,-4.680629 0.218128,-0.263081 8.286101,-0.139925 8.286093,0.126484 -1.6e-5,0.39861 -2.520021,7.859558 -2.884953,8.541442 -0.297196,0.555316 -0.464325,0.576766 -4.494183,0.576766 H 7.1454396 Z m 12.8926719,0.04158 c 0.867933,-2.487363 1.644814,-4.630488 1.726401,-4.7625 0.08159,-0.132011 1.986782,-0.240019 4.233767,-0.240019 3.170647,0 4.085425,0.07683 4.085425,0.343122 0,0.469612 -1.901756,6.082623 -2.640298,7.792815 l -0.599866,1.389063 h -4.191746 -4.191746 z m 37.513409,2.472214 -6.531144,-0.07557 -0.53208,-1.38448 c -0.292642,-0.761463 -1.003279,-2.515571 -1.579189,-3.898018 -0.575914,-1.382448 -1.019805,-2.54245 -0.986431,-2.57778 0.03338,-0.03533 3.133937,-0.08548 6.890136,-0.111443 6.269548,-0.04333 6.85763,-0.0087 7.173127,0.422794 0.302455,0.413634 0.977847,2.007555 2.782162,6.565908 l 0.497464,1.25677 -0.591452,-0.06131 c -0.3253,-0.03372 -3.530467,-0.09531 -7.122593,-0.136877 z m -4.77628,-12.303379 c -0.347075,-0.267975 -3.376953,-7.197362 -3.376953,-7.723152 0,-0.244647 7.060078,-0.166915 7.722734,0.08503 0.472792,0.179755 0.93031,1.013836 1.995559,3.638021 0.760169,1.872636 1.457113,3.613152 1.548765,3.867814 0.153771,0.427265 -0.127897,0.463021 -3.647556,0.463021 -2.646513,0 -3.945332,-0.101251 -4.242549,-0.33073 z M 53.642669,11.63453 50.342977,11.489723 49.63452,9.7699316 C 49.244869,8.8240462 48.803155,7.7524838 48.652932,7.3886817 48.502712,7.0248796 48.076492,5.9687953 47.705777,5.041825 l -0.674026,-1.6853984 3.235513,0.1127998 c 1.779531,0.06204 3.484639,0.2490708 3.789129,0.4156207 0.304488,0.1665526 0.800891,0.9337516 1.103119,1.7048903 0.302226,0.7711386 1.026237,2.5033974 1.608913,3.849465 0.864637,1.9974456 0.978011,2.4375346 0.61667,2.3937646 -0.243504,-0.0295 -1.927596,-0.118793 -3.742426,-0.198437 z M 8.1101845,-2.7457458 c 0.6925786,-2.0659089 1.5178298,-4.2622124 1.8338958,-4.8806759 l 0.5746617,-1.1244791 h 4.237265 4.237265 l -0.320686,0.5953124 c -0.176376,0.3274219 -0.998868,2.5003124 -1.82776,4.8286456 l -1.507075,4.23333315 -4.2434,0.0520303 -4.2434006,0.0520328 z M 20.641882,0.82449387 19.79557,0.7425974 21.192713,-3.3212463 c 0.768427,-2.2351126 1.598496,-4.3711493 1.844598,-4.7467491 l 0.447458,-0.6829054 h 4.123248 c 3.823195,0 4.109366,0.033695 3.932465,0.4630208 -0.104931,0.2546614 -0.843608,2.3084894 -1.641504,4.5640622 -0.797896,2.2555728 -1.528453,4.17943225 -1.623459,4.27524052 -0.187645,0.18922999 -6.256576,0.40632854 -7.633637,0.27307115 z M 33.649568,-1.9314325 c 1.035363,-3.2249928 1.501249,-4.491368 2.143792,-5.8272809 l 0.477216,-0.9921874 h 4.212637 c 3.912563,0 4.198255,0.032983 4.010731,0.4630208 -0.111048,0.2546614 -0.885748,2.3680207 -1.721551,4.6963539 l -1.519645,4.23333313 -4.237955,0.0725937 -4.237955,0.0725964 z"
       style="fill:#98d8f2;stroke-width:0.541864" />
    <path
       id="path1560"
       d="m 20.14799,57.130346 c 0,-3.710781 0.03721,-5.228828 0.0827,-3.373437 0.04548,1.85539 0.04548,4.891484 0,6.746874 -0.04548,1.855391 -0.0827,0.337344 -0.0827,-3.373437 z M -4.927455,40.779703 c -1.3872844,-0.06039 -1.7774681,-0.161986 -1.6725184,-0.435481 0.075287,-0.196194 0.2745448,-0.815588 0.4427987,-1.376439 l 0.3059165,-1.019728 4.0124351,0.0145 c 2.42576872,0.0088 4.1593848,-0.09587 4.3840504,-0.264583 0.7017544,-0.526997 -0.4730564,1.397754 -1.3796882,2.260409 -0.93445804,0.889133 -1.81353877,1.007632 -6.0929941,0.821333 z M 6.1771202,39.270972 7.1433229,37.815764 h 4.2051811 4.205185 l -0.305642,0.595312 c -0.168103,0.327422 -0.671899,0.982266 -1.119544,1.455208 L 13.314599,40.72618 H 9.262757 5.2109149 Z M 18.84411,39.515288 c 0.50836,-0.665988 0.924293,-1.320832 0.924293,-1.455208 0,-0.139536 1.880018,-0.244316 4.38364,-0.244316 h 4.383643 l -0.592852,0.859895 c -1.3619,1.975358 -1.523635,2.030468 -5.98987,2.041007 l -4.033149,0.0095 0.924295,-1.210892 z M 68.080193,36.492286 C 66.807407,35.768883 66.756485,35.689797 65.415317,32.353507 64.663306,30.4828 63.90669,28.69015 63.733949,28.36984 63.432903,27.811619 63.45136,27.798435 64.17892,28.052065 c 1.313695,0.457957 2.07338,1.582536 3.691225,5.46422 0.864286,2.073671 1.557073,3.75753 1.539529,3.741906 -0.01754,-0.01561 -0.61581,-0.36028 -1.329481,-0.765905 z M 32.997569,35.7129 c 0,-0.13793 0.608764,-2.04293 1.352809,-4.233333 l 1.352809,-3.982553 11.148753,0.05617 c 7.245974,0.03651 9.653174,0.105974 6.876452,0.198438 l -4.272301,0.142266 1.045538,2.513542 c 0.575045,1.382447 1.284973,3.136555 1.577615,3.898018 l 0.53208,1.38448 6.531144,0.07557 c 3.592126,0.04156 -0.820968,0.103158 -9.806879,0.136877 -10.159267,0.03812 -16.33802,-0.03353 -16.33802,-0.189475 z M 1.1803055,17.442848 C 3.285415,11.258213 5.3677334,5.1264943 5.8076799,3.8168069 6.2476264,2.5071194 6.6923592,1.3413574 6.79597,1.226224 6.8995835,1.1110932 8.8869032,0.99203068 11.212236,0.96164064 L 15.440113,0.90639035 12.283492,10.166807 C 10.547349,15.260035 8.445266,21.451285 7.612199,23.925139 l -1.5146707,4.497917 -4.3723479,0.132291 -4.3723452,0.132292 z M 18.72977,28.687639 c -0.0123,-0.165322 -1.591802,-0.257159 -4.210184,-0.244795 l -4.190495,0.01979 2.896735,-8.486455 C 14.819031,15.308626 16.923333,9.1084733 17.902053,6.1980568 l 1.77949,-5.29166645 3.946035,-0.0630952 c 2.170319,-0.0347028 4.141383,-0.10945018 4.380143,-0.16610805 0.330128,-0.0783352 -0.579597,2.8837492 -3.797951,12.3662199 -4.842946,14.269134 -5.452777,16.010069 -5.48,15.644232 z m 12.959032,-0.07878 c -0.01111,-0.269965 -0.919763,-0.326522 -4.250827,-0.264583 -3.681558,0.06846 -4.215479,0.02678 -4.074882,-0.318095 0.08899,-0.218282 2.203854,-6.409531 4.699698,-13.758333 L 32.600694,0.90639035 37.002844,0.77409869 41.404992,0.64180703 40.773461,2.3615986 C 40.426119,3.307484 38.243158,9.6773274 35.92244,16.516806 33.601721,23.356285 31.696586,28.797708 31.688802,28.608859 Z m 28.895216,-1.037121 c 0.402183,-0.06082 0.997495,-0.05919 1.322917,0.0036 0.325421,0.0628 -0.0037,0.112559 -0.731242,0.110575 -0.727605,-0.0021 -0.993857,-0.05337 -0.591675,-0.114187 z m 2.9885,-3.125846 c -0.282474,-0.213654 -0.735986,-0.388461 -1.007803,-0.388461 -0.271814,0 -0.422571,-0.115917 -0.33501,-0.257591 0.08756,-0.141676 -0.553357,-1.990338 -1.42426,-4.10814 -1.569913,-3.817606 -1.576811,-3.845814 -0.806063,-3.296994 0.427566,0.304456 1.072985,1.057945 1.434263,1.674419 0.848268,1.447455 3.086457,6.784638 2.840583,6.773642 -0.103466,-0.0046 -0.419235,-0.183224 -0.70171,-0.396875 z m -25.199383,-4.754086 1.360818,-4.101041 h 5.575421 5.575424 l 1.562209,3.853968 c 0.859213,2.119683 1.745914,3.961529 1.970447,4.092995 0.248968,0.145775 -3.066613,0.242168 -8.498448,0.247074 l -8.906689,0.008 z M 58.480337,12.364843 C 58.07562,12.169237 57.419393,10.950693 56.297525,8.311588 55.415256,6.2361303 54.693401,4.4442953 54.693401,4.3297334 c 0,-0.1145619 0.315402,0.080351 0.700892,0.4331414 0.547134,0.5007186 4.061608,7.2446992 4.061608,7.7938862 0,0.185113 -0.329658,0.120261 -0.975564,-0.191918 z m -2.249045,-0.658984 c 0.190994,-0.07643 0.4192,-0.06703 0.507119,0.02088 0.08792,0.08792 -0.06835,0.150453 -0.347266,0.138965 -0.308226,-0.0127 -0.370919,-0.07539 -0.159853,-0.159851 z m -15.03164,-0.202333 c 0,-0.06517 0.61056,-1.9159241 1.356799,-4.1127885 l 1.356799,-3.994298 1.604539,0.077893 1.604542,0.077891 0.620064,1.5874999 c 0.341038,0.8731249 0.727935,1.8256249 0.859777,2.1166665 0.131839,0.2910417 0.592241,1.3923698 1.023117,2.4473957 l 0.783408,1.9182294 h -4.604523 c -2.532488,0 -4.604522,-0.05332 -4.604522,-0.118489 z M 23.488294,-9.045345 c 0.125751,-0.234704 0.65405,-0.8002508 1.173995,-1.256771 l 0.945359,-0.830035 h 4.141338 4.141335 l -0.670383,0.727604 c -0.36871,0.400183 -0.83747,0.9657295 -1.041688,1.2567712 -0.345229,0.4920006 -0.671463,0.5291666 -4.644948,0.5291666 -3.849817,0 -4.250971,-0.04232 -4.045008,-0.4267358 z M 11.039995,-9.5486434 c 0.995844,-1.3985316 1.688952,-1.5835076 5.933432,-1.5835076 h 3.845885 l -0.856184,1.1742475 -0.856183,1.1742472 -4.317495,0.016378 -4.317497,0.016378 z m 25.397157,0.5458963 c 0,-0.3276468 1.845903,-2.1203839 2.2234,-2.1593619 0.159578,-0.01648 2.090417,-0.04665 4.290753,-0.06704 3.272893,-0.03034 3.914539,0.0232 3.52743,0.294346 -0.26025,0.182285 -0.730782,0.748236 -1.045628,1.2576651 l -0.572447,0.9262401 h -4.211754 c -2.489449,0 -4.211754,-0.1029865 -4.211754,-0.2518463 z"
       style="fill:#5dbfe9;stroke-width:0.541864" />
    <path
       id="path1556"
       d="M -9.6003456,89.378232 C -18.44991,88.364952 -25.834143,82.17674 -28.821965,73.269928 L -29.576386,71.02097 V 28.290764 -14.439442 l 0.754421,-2.248958 c 2.041421,-6.085553 5.94634,-10.790765 11.276129,-13.587114 2.766012,-1.451227 5.217219,-2.199795 8.3423653,-2.547654 3.2255856,-0.359039 78.0014937,-0.359039 81.2270797,0 3.125147,0.347859 5.576352,1.096427 8.342365,2.547654 5.32979,2.796349 9.234709,7.501561 11.276128,13.587114 l 0.754422,2.248958 V 28.290764 71.02097 l -0.754422,2.248958 c -2.041419,6.085554 -5.946338,10.790764 -11.276128,13.587113 -2.766013,1.451229 -5.217218,2.199796 -8.342365,2.547655 -2.943328,0.327623 -78.7461639,0.303043 -81.6239546,-0.02646 z M 74.052076,83.557637 c 3.235209,-1.104471 5.415926,-2.465123 7.804732,-4.869749 1.771383,-1.783114 2.376091,-2.621324 3.359073,-4.656169 2.168618,-4.489185 2.046235,-1.579538 1.962859,-46.666997 l -0.07388,-39.952081 -0.720834,-2.116667 c -1.638538,-4.811422 -4.901353,-8.667126 -9.122623,-10.7803 -4.681149,-2.34339 -1.341245,-2.184282 -45.851332,-2.184282 -44.510086,0 -41.1701833,-0.159108 -45.851332,2.184282 -4.22127,2.113174 -7.484086,5.968878 -9.122623,10.7803 l -0.720834,2.116667 -0.07388,39.952081 c -0.08338,45.087459 -0.20576,42.177812 1.962857,46.666997 2.483497,5.141008 7.767854,9.094711 13.4568567,10.068285 0.7276041,0.124515 19.2418223,0.209235 41.1427063,0.188264 l 39.81979,-0.03813 z"
       style="fill:#fd7600;stroke-width:0.541864" />
    <path
       id="path1554"
       d="m 23.687543,68.591272 c 0.190995,-0.07643 0.419198,-0.06703 0.507119,0.02088 0.08792,0.08792 -0.06835,0.150453 -0.347265,0.138965 -0.308227,-0.0127 -0.37092,-0.07539 -0.159854,-0.159851 z m 21.943879,0.0055 c 0.181901,-0.0734 0.479558,-0.0734 0.661459,0 0.181901,0.0734 0.03307,0.133453 -0.330729,0.133453 -0.363802,0 -0.512631,-0.06005 -0.33073,-0.133453 z m -25.556661,-4.32268 c 0,-0.363803 0.06006,-0.512631 0.133453,-0.33073 0.0734,0.181901 0.0734,0.479558 0,0.661459 -0.0734,0.181901 -0.133453,0.03307 -0.133453,-0.330729 z m 21.654057,-4.7625 v -5.291667 l 1.389063,0.04769 1.389062,0.04769 -1.25677,0.0991 -1.256771,0.0991 v 4.99809 4.99809 l 1.256771,0.0991 1.25677,0.0991 -1.389062,0.04769 -1.389063,0.04769 z m -16.02548,-3.042708 c 1.74e-4,-3.4925 0.03782,-4.884656 0.08366,-3.093681 0.04584,1.790976 0.0457,4.648475 -2.64e-4,6.35 -0.04606,1.701525 -0.08357,0.23618 -0.0834,-3.256319 z m 27.708922,4.365624 c 0,-0.363802 0.06005,-0.51263 0.133453,-0.330729 0.0734,0.181901 0.0734,0.479558 0,0.661459 -0.0734,0.181901 -0.133453,0.03307 -0.133453,-0.33073 z m 0,-2.910416 c 0,-0.363802 0.06005,-0.51263 0.133453,-0.330729 0.0734,0.181901 0.0734,0.479557 0,0.661458 -0.0734,0.181901 -0.133453,0.03307 -0.133453,-0.330729 z M 51.096388,52.566284 50.59236,51.970971 51.187672,52.475 c 0.327422,0.277214 0.595313,0.545105 0.595313,0.595312 0,0.211733 -0.212934,0.05542 -0.686597,-0.504028 z m -5.464966,-2.225749 c 0.181901,-0.0734 0.479558,-0.0734 0.661459,0 0.181901,0.0734 0.03307,0.133453 -0.330729,0.133453 -0.363802,0 -0.512631,-0.06005 -0.33073,-0.133453 z M -7.215045,41.718368 c 0.010821,-0.882344 0.4078129,-0.980671 3.7839304,-0.937173 3.51119266,0.04524 4.13815194,0.312616 2.1439372,0.914313 -1.4587219,0.440126 -5.933191,0.457382 -5.9278676,0.02286 z M 3.6254655,41.232955 c 0.6529995,-0.296127 1.4248526,-0.739653 1.7152328,-0.985613 0.4974854,-0.421391 0.5076004,-0.420883 0.1752335,0.0088 -0.3298904,0.42646 -0.089741,0.460726 3.7087253,0.529166 3.7453969,0.06749 4.0099799,0.104066 3.3999959,0.470056 -0.511228,0.306737 -1.74312,0.410406 -5.4239578,0.456449 L 2.4381954,41.771383 3.6254655,41.23297 Z M 15.53507,41.678074 c 0,-0.08307 0.446484,-0.33755 0.992187,-0.565504 0.545703,-0.227955 1.348941,-0.735566 1.784977,-1.12803 l 0.792787,-0.713568 -0.633796,0.7205 -0.633799,0.7205 4.074343,0.07325 c 3.776498,0.0679 4.016316,0.101311 3.280592,0.45711 -0.56497,0.273224 -2.071097,0.413107 -5.225521,0.485322 -2.437473,0.0558 -4.43177,0.03349 -4.43177,-0.04958 z M 0.1892372,40.890867 c 0,-0.05494 0.20835937,-0.2633 0.46302081,-0.463021 0.41964499,-0.329107 0.42900329,-0.319748 0.0998961,0.0999 C 0.40651038,40.968472 0.1892372,41.10863 0.1892372,40.890867 Z M 13.94757,40.064722 c 0.341775,-0.363802 0.680939,-0.661459 0.7537,-0.661459 0.07276,0 -0.147341,0.297657 -0.489117,0.661459 -0.341775,0.363802 -0.680939,0.661458 -0.7537,0.661458 -0.07276,0 0.147341,-0.297656 0.489117,-0.661458 z m 12.170833,0.561562 c 0,-0.05494 0.208359,-0.2633 0.46302,-0.463021 0.419645,-0.329107 0.429004,-0.319749 0.0999,0.0999 -0.345643,0.44073 -0.562916,0.580888 -0.562916,0.363125 z m 42.969651,-3.385166 c -0.277217,-0.316058 -0.3552,-0.487625 -0.173299,-0.381262 0.181901,0.106362 0.330729,0.150063 0.330729,0.09711 0,-0.05295 -0.649666,-1.667325 -1.443702,-3.587491 -0.794035,-1.920166 -1.391766,-3.491211 -1.328293,-3.491211 0.180949,0 1.097029,1.884484 1.950061,4.011504 0.428274,1.067892 0.968603,2.388105 1.200732,2.933808 0.470276,1.105556 0.230794,1.292032 -0.536228,0.417542 z m -2.273429,-1.193594 c 0.190994,-0.07643 0.4192,-0.06703 0.507118,0.02088 0.08792,0.08792 -0.06835,0.150452 -0.347265,0.138964 -0.308226,-0.0127 -0.37092,-0.07539 -0.159853,-0.15985 z m -1.293334,-7.161448 -0.641432,-0.727604 0.727604,0.641432 c 0.680056,0.599517 0.84894,0.813777 0.641432,0.813777 -0.04739,0 -0.374814,-0.327422 -0.727604,-0.727605 z m -2.94,-1.305218 c 0.190995,-0.07643 0.419201,-0.06703 0.507119,0.02088 0.08792,0.08792 -0.06835,0.150453 -0.347265,0.138965 -0.308227,-0.0127 -0.37092,-0.07539 -0.159854,-0.159851 z m 1.907001,-2.326407 c -0.184076,-0.2218 -0.264552,-0.40327 -0.178832,-0.40327 0.08572,0 -0.255019,-0.974214 -0.757195,-2.164921 -0.502177,-1.190707 -0.87634,-2.20163 -0.831472,-2.246498 0.04487,-0.04487 0.595474,1.051555 1.223576,2.436492 1.082866,2.387682 1.284896,3.271015 0.543923,2.378197 z m -2.965334,-1.37776 c 0.190995,-0.07643 0.419201,-0.06703 0.507119,0.02088 0.08792,0.08792 -0.06835,0.150453 -0.347266,0.138964 -0.308226,-0.0127 -0.370919,-0.07539 -0.159853,-0.15985 z M 61.87532,18.83191 c -0.288714,-0.674698 -0.282181,-0.690261 0.08982,-0.214013 0.220647,0.282474 0.401174,0.609896 0.401174,0.727604 0,0.402143 -0.179474,0.214408 -0.490997,-0.513591 z m -1.394836,-2.116666 c -0.329107,-0.419645 -0.319749,-0.429004 0.0999,-0.0999 0.44073,0.345643 0.580887,0.562917 0.363125,0.562917 -0.05494,0 -0.2633,-0.20836 -0.463021,-0.463021 z M 44.026857,15.392825 c 2.500847,-0.04345 6.668034,-0.04352 9.260416,-1.64e-4 2.59238,0.04336 0.546232,0.0789 -4.546997,0.07899 -5.093228,8.9e-5 -7.214269,-0.03538 -4.713419,-0.07883 z M 59.495901,13.12542 c -0.164997,-0.198808 -0.23349,-0.427972 -0.152207,-0.509255 0.08128,-0.08128 -0.165881,-0.766773 -0.549251,-1.523317 -0.383371,-0.756544 -0.647825,-1.424744 -0.58768,-1.484889 0.06015,-0.060148 0.497526,0.732785 0.971955,1.762072 0.82496,1.789774 0.958339,2.527935 0.317183,1.755389 z M 40.934764,11.688161 c -1.66e-4,-0.109141 2.232255,-0.167942 4.960938,-0.130667 9.373398,0.128042 10.240461,0.217596 2.646137,0.273304 -4.183724,0.03069 -7.606908,-0.0335 -7.607075,-0.142637 z M 55.329721,4.6767027 54.825693,4.0813902 55.421005,4.5854188 c 0.559446,0.4736623 0.715762,0.6865963 0.504029,0.6865963 -0.05021,0 -0.318098,-0.2678906 -0.595313,-0.5953124 z M 24.266319,-10.185673 c 1.26397,-1.440375 2.6166,-1.814131 7.060433,-1.950926 4.487407,-0.138136 5.606457,0.03418 3.952787,0.608674 -0.563927,0.195911 -1.456647,0.752057 -1.983822,1.235885 l -0.958498,0.8796809 0.776552,-0.8598959 0.77655,-0.859896 h -4.141335 -4.141338 l -1.001392,0.850128 c -0.934868,0.7936491 -0.95745,0.8000493 -0.339937,0.09635 z m -3.988776,-0.218874 0.641435,-0.727604 h -3.899974 c -2.182376,0 -4.125362,0.120626 -4.411744,0.273892 -0.281475,0.15064 -0.511773,0.204351 -0.511773,0.119356 0,-0.08499 0.506015,-0.384225 1.124479,-0.664956 0.973894,-0.442066 1.726821,-0.508696 5.622395,-0.497541 l 4.497917,0.01289 -1.190625,0.527251 c -0.654844,0.289986 -1.488281,0.78759 -1.852083,1.105789 l -0.661459,0.5785405 0.641432,-0.7276045 z m 25.958884,-0.253756 0.671152,-0.615932 -4.161115,0.02027 c -2.288611,0.01114 -4.110699,-0.0613 -4.049085,-0.161001 0.06162,-0.0997 0.643025,-0.314971 1.292021,-0.478388 1.486937,-0.374417 8.883168,-0.40151 8.883168,-0.03254 0,0.145521 -0.22026,0.264584 -0.489468,0.264584 -0.269209,0 -1.013349,0.364262 -1.653646,0.809471 -0.740921,0.515176 -0.920171,0.585542 -0.493027,0.193543 z m -8.740942,0.220006 c 0,-0.05494 0.20836,-0.2633 0.463021,-0.463021 0.419645,-0.329107 0.429004,-0.319749 0.0999,0.0999 -0.345643,0.44073 -0.562917,0.580888 -0.562917,0.363125 z"
       style="fill:#36599b;stroke-width:0.541864" />
    <path
       id="path1552"
       d="m -8.9388873,84.100004 c -3.7927247,-0.64906 -7.1577467,-2.452614 -10.0977817,-5.412116 -1.771385,-1.783114 -2.376091,-2.621324 -3.359075,-4.656169 -2.168617,-4.489185 -2.046235,-1.579538 -1.962857,-46.666997 l 0.07388,-39.952081 0.720834,-2.116667 c 1.638537,-4.811422 4.901353,-8.667126 9.122623,-10.7803 4.6811487,-2.34339 1.341246,-2.184282 45.851332,-2.184282 44.510087,0 41.170183,-0.159108 45.851332,2.184282 4.22127,2.113174 7.484085,5.968878 9.122623,10.7803 l 0.720834,2.116667 0.07388,39.952081 c 0.08338,45.087459 0.205759,42.177812 -1.962859,46.666997 -2.132541,4.41451 -6.094719,7.795379 -11.163805,9.525918 l -2.028467,0.692499 -39.81979,0.03813 C 10.302935,84.309249 -8.2112832,84.224519 -8.9388873,84.100004 Z M 70.621523,79.596092 c 2.579172,-0.530556 5.649672,-2.22113 7.628917,-4.200374 1.979244,-1.979245 3.669818,-5.049745 4.200374,-7.628916 0.200464,-0.974514 0.287226,-13.037034 0.284509,-39.555207 -0.0043,-42.118045 0.08939,-39.727698 -1.696525,-43.274056 -1.779574,-3.533763 -5.030017,-6.292394 -9.015189,-7.651137 l -2.116667,-0.721677 h -38.23229 c -36.0422037,0 -38.3393134,0.02745 -40.1006181,0.479293 -5.3833929,1.381032 -9.7650959,5.762735 -11.1461279,11.146128 -0.451912,1.761593 -0.479293,4.0675898 -0.479293,40.365201 V 67.05222 l 0.721677,2.116667 c 1.360332,3.989832 4.117236,7.235547 7.662235,9.02078 3.4575068,1.74117 1.084769,1.648577 42.866084,1.672802 26.489862,0.01535 38.446054,-0.06543 39.422914,-0.266377 z"
       style="fill:#d60100;stroke-width:0.541864" />
    <path
       id="path1550"
       d="M -8.3334202,79.474034 C -13.377314,78.251135 -17.574068,74.318157 -19.32971,69.168887 L -20.051387,67.05222 V 28.555347 c 0,-36.2976112 0.02738,-38.603608 0.479293,-40.365201 1.381032,-5.383393 5.762735,-9.765096 11.1461279,-11.146128 1.7613047,-0.451838 4.0584144,-0.479293 40.1006181,-0.479293 h 38.23229 l 2.116667,0.721677 c 3.985172,1.358743 7.235615,4.117374 9.015189,7.651137 1.785919,3.546358 1.692207,1.156011 1.696525,43.274056 0.0027,26.518173 -0.08404,38.580693 -0.284509,39.555207 -0.530556,2.579171 -2.22113,5.649671 -4.200374,7.628916 -1.979245,1.979244 -5.049745,3.669818 -7.628917,4.200374 -0.97686,0.200948 -12.933052,0.281733 -39.422914,0.266377 -31.42981321,-0.01823 -38.2828017,-0.08556 -39.5320292,-0.388435 z M 4.3977127,67.779825 c 0.1430682,-0.545704 0.3391588,-1.31961 0.4357555,-1.719792 L 5.0091039,65.332429 H 8.25833 11.507559 l 0.465523,1.719791 0.465527,1.719792 h 3.003439 c 1.651891,0 3.003438,-0.09249 3.003438,-0.205523 0,-0.410628 -3.669815,-11.132412 -5.023691,-14.677289 L 12.032344,50.25118 H 8.2854365 4.5385319 l -1.549945,4.034895 c -1.2878249,3.352538 -4.9160163,13.954942 -4.9160163,14.365729 0,0.06611 1.36463085,0.120208 3.0325112,0.120208 h 3.0325085 z m 1.7481205,-7.225702 c 0.097795,-0.445257 0.6269567,-2.141897 1.1759142,-3.770312 l 0.9981035,-2.960757 1.0940679,3.448606 c 0.6017362,1.896734 1.0940682,3.593375 1.0940682,3.770312 0,0.227555 -0.6643399,0.321707 -2.2699823,0.321707 H 5.9680253 Z m 27.9035998,7.88716 c -0.0057,-0.291219 -0.217665,-1.349933 -0.66217,-3.307292 -0.131286,-0.578117 -0.230034,-0.595312 -3.418543,-0.595312 -2.632088,0 -3.365823,-0.08247 -3.699127,-0.415774 -0.356176,-0.356174 -0.415774,-1.380186 -0.415774,-7.14375 V 50.25118 h -2.925318 -2.925317 l 0.08105,7.60677 c 0.07566,7.100871 0.117602,7.676459 0.630706,8.654608 0.35856,0.68354 0.947946,1.258456 1.695259,1.653646 1.08264,0.572513 1.43415,0.605808 6.395653,0.605808 4.027104,0 5.248548,-0.07704 5.243584,-0.330729 z m 14.681535,-0.32848 c 1.806959,-0.670727 3.631486,-2.544615 4.267856,-4.383315 0.369782,-1.06843 0.499028,-2.191845 0.501126,-4.355748 0.0027,-2.76879 -0.04138,-3.00578 -0.873003,-4.695042 -0.938808,-1.906987 -1.80636,-2.727483 -3.901236,-3.689633 -1.204703,-0.553304 -1.753764,-0.608134 -6.930747,-0.692134 l -5.622395,-0.09123 v 9.30589 9.30589 l 5.622395,-0.10854 c 4.6223,-0.08923 5.856057,-0.195276 6.936004,-0.596143 z m -6.737566,-8.601207 v -5.027083 h 1.525481 c 1.855753,0 3.158514,0.628912 3.898477,1.882007 0.761074,1.288841 0.754877,4.999154 -0.01056,6.320076 -0.717717,1.23858 -2.005309,1.851162 -3.892047,1.851673 l -1.521354,4.1e-4 z m 20.108332,0 V 50.25118 h -2.778125 -2.778125 v 9.260416 9.260416 h 2.778125 2.778125 z M -1.5176215,41.753655 C 0.11282025,41.343106 1.8454997,39.737959 2.8195791,37.73569 3.2583138,36.833845 6.8746756,26.511441 10.855938,14.797015 14.837197,3.0825882 18.333306,-7.0377238 18.625067,-7.6925676 c 0.775869,-1.7414027 1.876158,-2.9110724 3.383605,-3.5969654 l 1.331606,-0.605885 -4.497917,-0.0094 c -5.045344,-0.01058 -5.883229,0.198935 -7.457924,1.864868 C 10.029535,-8.6065654 9.1837101,-6.5531977 5.6220509,3.9491091 3.7714043,9.4061401 0.12506252,20.156216 -2.4809297,27.83817 c -2.6059923,7.681942 -4.7381661,14.022019 -4.7381661,14.089052 0,0.249991 4.5721347,0.110804 5.7014743,-0.173567 z M 11.830903,41.523893 c 1.434195,-0.399063 2.741703,-1.658191 3.767709,-3.628307 0.515467,-0.989788 2.63026,-6.800239 4.69954,-12.912114 8.483562,-25.05725173 10.868088,-31.940318 11.479982,-33.1376237 0.815697,-1.5960909 2.186572,-2.9169963 3.501405,-3.3737733 1.65367,-0.574492 0.53462,-0.74681 -3.952787,-0.608674 -5.698559,0.175419 -6.925072,0.821976 -8.681249,4.5763231 -0.408424,0.873125 -3.594589,9.9814058 -7.080366,20.2406239 C 6.806982,38.457045 7.1413333,37.523129 6.1082624,39.095402 5.3936864,40.182951 4.8655278,40.650544 3.809372,41.130683 l -1.3711766,0.623348 4.2333332,0.01376 c 2.3283332,0.0076 4.6500514,-0.102185 5.1593744,-0.243903 z m 12.580641,-0.03482 c 1.644957,-0.414203 3.377065,-2.024465 4.326662,-4.022299 0.427524,-0.899462 4.071768,-11.338978 8.098313,-23.198925 4.026548,-11.8599473 7.63374,-22.1416551 8.015981,-22.8482381 0.795059,-1.4696919 2.229421,-2.7748149 3.292464,-2.9958109 1.736259,-0.360952 0.447926,-0.614283 -3.123983,-0.614283 -4.512847,0 -5.796827,0.263387 -7.219225,1.480907 -2.056465,1.7602598 -1.682366,0.7997642 -10.899319,27.983774 -3.644379,10.748544 -6.907908,20.09495 -7.252292,20.769791 -0.762685,1.494538 -1.803834,2.517582 -3.122888,3.068582 -0.545703,0.227954 -0.992187,0.472395 -0.992187,0.543202 0,0.26325 7.746761,0.117766 8.876474,-0.1667 z M 69.625198,36.823576 C 69.393574,36.277873 68.778923,34.776487 68.259308,33.487162 67.092588,30.592171 65.957967,28.873821 64.747567,28.168743 63.84705,27.644175 63.432014,27.629306 49.6899,27.629306 H 35.558275 l -1.398683,3.96875 c -0.769273,2.182812 -1.404963,4.058046 -1.412644,4.167187 -0.0077,0.10914 7.51674,0.199101 16.720933,0.199914 10.779577,0.0011 17.087822,0.09949 17.726646,0.276899 0.545464,0.151482 1.319371,0.563774 1.719791,0.916205 1.019556,0.897358 1.198137,0.813281 0.71088,-0.334685 z M 63.5529,22.01249 C 61.665092,17.860307 60.829057,16.600677 59.533972,15.9573 58.616987,15.501756 57.713691,15.451671 49.123962,15.38008 l -9.4059,-0.0784 -1.380223,4.047145 c -0.759124,2.225929 -1.378267,4.13644 -1.375873,4.245581 0.0024,0.109141 5.356304,0.198438 11.897579,0.198438 12.583821,0 14.053978,0.114591 15.307011,1.193106 0.392316,0.337677 0.760401,0.567068 0.817964,0.509757 C 65.042086,25.4384 64.397854,23.87095 63.5529,22.01249 Z M 58.287729,9.571547 C 55.239271,3.3598503 55.249823,3.3663194 48.343401,3.4776111 l -4.630208,0.074613 -1.370523,3.9687498 c -0.753787,2.1828123 -1.378865,4.0580461 -1.389062,4.1671881 -0.01019,0.10914 3.642632,0.20105 8.117398,0.204247 7.381115,0.0053 8.237232,0.05181 9.227774,0.501619 0.600512,0.272691 1.177981,0.635185 1.283264,0.805539 0.105285,0.170358 0.258857,0.242307 0.34127,0.159895 0.08241,-0.08241 -0.6536,-1.786975 -1.635585,-3.787915 z"
       style="fill:#00005d;stroke-width:0.541864" />
  </g>
</svg>
