<?xml version="1.0" encoding="UTF-8" standalone="no"?>
<svg
   id="svg8"
   version="1.1"
   viewBox="0 0 250 250">
  <defs
     id="defs2">
    <clipPath
       clipPathUnits="userSpaceOnUse"
       id="clipPath867">
      <path
         d="M 0,512 H 512 V 0 H 0 Z"
         id="path865" />
    </clipPath>
    <clipPath
       id="clipPath867-5"
       clipPathUnits="userSpaceOnUse">
      <path
         id="path865-9"
         d="M 0,512 H 512 V 0 H 0 Z" />
    </clipPath>
    <clipPath
       id="clipPath1496"
       clipPathUnits="userSpaceOnUse">
      <path
         id="path1494"
         d="M 0,67.5 H 148.5 V 0 H 0 Z" />
    </clipPath>
  </defs>
  <rect
     ry="31.12924"
     y="0"
     x="0"
     height="250"
     width="250"
     id="rect2791"
     style="display:inline;fill:#f5f5f4;fill-opacity:1;stroke:none;stroke-width:1.13386" />
  <g
     transform="matrix(0.24570334,0,0,0.24570334,85.356688,126.38528)"
     style="display:inline;stroke-width:4.06995"
     id="g941">
    <path
       id="path945"
       d="M 127.4252,421.22306 C 83.28829,418.38092 49.00246,411.46638 9.66213,397.47337 -74.77006,367.4416 -147.16736,321.24338 -210.17805,257.18881 c -26.59888,-27.03954 -29.29568,-30.93232 -25.86711,-37.33868 1.1419,-2.13366 5.97368,-4.94461 8.49935,-4.94461 0.89556,0 11.06722,6.29757 22.60369,13.99459 60.73844,40.52417 122.00921,71.27235 191.17608,95.93999 28.39145,10.12552 72.4448,18.92604 117.69124,23.51115 55.76882,5.65139 119.95537,4.04378 161.21727,-4.03785 66.29167,-12.98401 128.68597,-34.04361 191.958,-64.79052 14.25447,-6.92692 16.22446,-7.61736 21.73423,-7.61736 5.28152,0 6.47798,0.37441 9.32472,2.91797 2.87183,2.56598 3.26578,3.52749 3.26578,7.97085 0,4.87538 -0.22834,5.28473 -6.5,11.65257 -28.9935,29.43813 -74.51599,61.47457 -114.43267,80.53195 -52.73437,25.17693 -116.28564,41.47329 -179.06733,45.91796 -12.78682,0.90525 -51.91107,1.10469 -64,0.32624 z m 367.56469,-61.98478 c -2.87759,-2.01554 -2.62285,-3.97467 1.83357,-14.10157 12.32872,-28.01611 25.10174,-70.69986 25.10174,-83.88275 0,-5.80179 -3.57933,-12.3073 -8.41621,-15.29666 -4.66934,-2.88581 -15.79603,-4.0349 -39.16011,-4.04419 -20.32187,-0.008 -33.93706,1.03966 -52.34264,4.02796 -13.26929,2.15439 -15.37736,1.68075 -14.88944,-3.34536 0.24873,-2.56227 1.27578,-3.8096 5.3084,-6.44694 17.1291,-11.20248 41.26935,-20.33562 65.68894,-24.85255 11.98826,-2.21749 38.60792,-2.94279 51.58022,-1.40541 17.45574,2.06873 23.14335,5.04869 27.7993,14.56511 2.67727,5.47213 2.71334,5.80033 2.11658,19.2583 -1.76522,39.80897 -17.41777,75.03325 -46.11652,103.78 -6.63769,6.64878 -13.05191,12.33654 -14.25383,12.63946 -1.20192,0.30292 -3.11442,-0.10001 -4.25,-0.8954 z"
       style="display:inline;fill:#f29805;stroke-width:4.06995" />
    <path
       id="path943"
       d="m 50.9252,208.81591 c -27.69734,-3.56232 -57.77149,-14.65572 -80.75819,-29.78913 -11.27943,-7.42586 -16.2302,-11.91384 -26.04377,-23.60922 -37.3737,-44.54034 -52.05659,-102.67871 -40.03233,-158.51204 7.57819,-35.18846 27.75522,-71.0082 55.79066,-99.04363 25.87477,-25.87477 55.0277,-43.2048 88.04363,-52.33775 54.70872,-15.13366 100.72079,-21.97067 171,-25.40919 l 14.5,-0.70943 0.26282,-35.92565 c 0.29965,-40.95985 0.14829,-42.14258 -7.34628,-57.40267 -8.08781,-16.46802 -23.96069,-30.06508 -41.64526,-35.67424 -20.50778,-6.50462 -47.21327,-5.36531 -69.25902,2.95474 -25.07319,9.46259 -48.31774,35.47052 -54.59078,61.08069 -0.66917,2.73192 -2.07125,6.67786 -3.11573,8.76874 -2.16116,4.3263 -9.26743,9.31917 -14.71958,10.342 -3.82237,0.71708 -100.07478,-7.24455 -106.3493,-8.79681 -7.60905,-1.8824 -14.73687,-10.94613 -14.73687,-18.73938 0,-2.18474 1.3411,-9.17355 2.98021,-15.53068 12.58497,-48.80939 40.75405,-88.71208 81.94961,-116.08508 34.98256,-23.24469 73.39098,-37.79638 116.57018,-44.16463 18.57904,-2.74011 60.10897,-2.46429 79.39318,0.52729 37.48211,5.81465 73.61104,18.69891 104.10682,37.12645 14.06184,8.49708 20.19186,13.01835 28.33887,20.90169 23.54707,22.78499 39.0531,50.97817 46.93253,85.3331 2.10314,9.16985 2.13702,11.0617 2.74539,153.28444 0.61081,142.79218 0.63414,144.0834 2.78182,153.94322 2.33019,10.69772 5.99292,22.51419 9.90105,31.94212 1.3418,3.23694 9.70482,16.48358 18.5845,29.43698 16.04991,23.41312 16.14719,23.58818 16.54055,29.76574 0.71941,11.29807 2.6113,9.23944 -46.36174,50.44783 -24.48779,20.60526 -46.19719,38.23981 -48.24311,39.18789 -4.30739,1.99604 -10.02822,2.23469 -15.71616,0.65563 -7.36248,-2.04393 -34.20815,-30.53628 -56.18323,-59.62941 -6.33537,-8.3875 -12.04666,-15.25 -12.69174,-15.25 -0.64509,0 -4.98795,3.85877 -9.65081,8.57504 -9.99359,10.10807 -27.28307,24.90319 -38.36153,32.8271 -26.93123,19.26266 -69.38249,34.43068 -109.49439,39.12282 -13.46889,1.57554 -34.47376,1.75496 -45.122,0.38543 z m 107.5,-110.8716 c 9.06676,-2.90502 20.11972,-10.76506 32.44886,-23.07522 20.86735,-20.83521 35.23235,-47.41027 41.04476,-75.93225 1.82025,-8.93213 2.00638,-13.73903 2.00638,-51.81596 0,-36.42206 -0.20192,-42.13805 -1.52743,-43.23812 -2.52921,-2.09906 -45.78555,0.0201 -73.21134,3.58673 -26.6895,3.47085 -49.57374,14.74905 -68.81744,33.91578 -21.08273,20.99842 -29.57667,41.73391 -29.70666,72.52025 -0.0844,19.98152 4.20825,38.58144 12.53634,54.31981 7.13471,13.48315 26.93289,26.9029 46.09185,31.24233 9.43517,2.13703 30.23769,1.32728 39.13468,-1.52335 z"
       style="display:inline;fill:#020202;stroke-width:4.06995" />
  </g>
</svg>
