<?xml version="1.0" encoding="UTF-8" standalone="no"?>
<svg
   viewBox="0 0 250 250"
   version="1.1"
   id="svg8">
  <defs
     id="defs2">
    <clipPath
       id="clipPath867"
       clipPathUnits="userSpaceOnUse">
      <path
         id="path865"
         d="M 0,512 H 512 V 0 H 0 Z" />
    </clipPath>
    <clipPath
       clipPathUnits="userSpaceOnUse"
       id="clipPath867-5">
      <path
         d="M 0,512 H 512 V 0 H 0 Z"
         id="path865-9" />
    </clipPath>
  </defs>
  <rect
     style="display:inline;fill:#020203;fill-opacity:1;stroke:none;stroke-width:1.13386"
     id="rect2791"
     width="250"
     height="250"
     x="0"
     y="0"
     ry="31.12924" />
  <g
     style="display:inline;stroke-width:1.2"
     transform="matrix(0.8333333,0,0,0.8333333,-603.37588,153.69359)"
     id="g1042">
    <path
       id="path1050"
       d="m 753.05109,85.19936 c 0,-3.1935 0.21523,-3.3972 4.14675,-3.92453 4.94345,-0.66305 8.94629,-4.0141 7.05455,-5.90584 -0.96123,-0.96123 -1.83658,-0.85724 -4.1154,0.48889 -1.59197,0.94039 -3.83755,1.70981 -4.99019,1.70981 -2.01118,0 -2.09571,-0.48399 -2.09571,-12 v -12 h 10.5 10.5 l -0.002,11.75 c -0.002,13.42591 -1.2436,17.2038 -6.89633,20.98007 -2.47572,1.65392 -4.85029,2.26993 -8.74995,2.26993 h -5.35212 z m 13.30702,-19.74575 c 1.49854,-2.39179 0.10702,-4.88592 -2.72595,-4.88592 -3.05092,0 -4.80774,2.70795 -3.42862,5.28486 1.16395,2.17486 4.685,1.94662 6.15457,-0.39894 z m 13.90677,-1.63592 0.28621,-9.75 10.75,-0.28383 10.75,-0.28383 v 10.03383 10.03383 h -11.03621 -11.03621 z m 13.74053,2.30504 c 1.6783,-2.02223 0.90378,-5.96634 -1.25236,-6.3774 -4.0272,-0.76778 -6.42871,4.71724 -2.95196,6.74226 2.3443,1.36543 2.80122,1.32578 4.20432,-0.36486 z m 14.04568,-2.55504 v -10 h 11 11 v 10 10 h -11 -11 z m 15,0.0873 c 0,-2.7475 -2.77984,-4.71548 -4.83382,-3.42209 -2.36833,1.49134 -2.68669,4.48106 -0.63678,5.97999 2.20222,1.6103 5.4706,0.0821 5.4706,-2.5579 z m 13,-0.0873 v -10 h 7.5 7.5 v -5 -5 h 3.5 3.5 v 15 15 h -11 -11 z m 13.06574,2.96482 c 2.17996,-1.16668 2.53612,-3.96296 0.73426,-5.76482 -1.84476,-1.84476 -4.60804,-1.42719 -5.84452,0.88319 -0.88943,1.6619 -0.76408,2.47082 0.6198,4 2.02392,2.2364 1.97646,2.22708 4.49046,0.88163 z m 14.93426,-3.02818 V 53.44097 l 3.19941,0.31336 3.1994,0.31336 -0.26376,5.57415 c -0.19013,4.01804 0.16072,5.92643 1.25679,6.83609 2.56472,2.12853 3.60816,0.25769 3.60816,-6.46926 v -6.44098 h 3.5 3.5 v 6.44098 c 0,6.64046 0.66979,8.0067 3.40976,6.95528 1.22644,-0.47063 1.59024,-2.08727 1.59024,-7.06661 v -6.45637 l 3.25,0.31336 3.25,0.31336 0.28621,9.75 0.28621,9.75 H 879.0873 864.05109 Z m 35.21379,0.31336 0.28621,-9.75 3.25,-0.31336 3.25,-0.31336 v 10.06336 10.06336 h -3.53621 -3.53621 z m 12.78621,-5.25 v -15 h 3.5 3.5 v 15 15 h -3.5 -3.5 z m 13,-0.0634 V 43.44093 l 3.25,0.31336 c 1.7875,0.17235 3.1375,0.65086 3,1.06336 -0.1375,0.4125 -0.25,7.05 -0.25,14.75 v 14 h -3 -3 z m -25.81336,-11.1866 c 0.27554,-2.85772 0.70564,-3.28782 3.56336,-3.56336 3.11725,-0.30056 3.25,-0.16781 3.25,3.25 0,3.41781 -0.14555,3.56336 -3.56336,3.56336 -3.41781,0 -3.55056,-0.13275 -3.25,-3.25 z m -145.68664,-70.75 v -15 l 6,-0.0174 c 8.70338,-0.0252 18.64831,-2.41141 25.6885,-6.1638 5.97837,-3.18639 15.8115,-11.68992 15.8115,-13.67347 0,-0.54149 -2.57386,-2.55875 -5.71968,-4.48282 l -5.71969,-3.49829 -3.9103,3.53272 c -6.19006,5.59235 -13.53339,8.4547 -23.24479,9.06057 l -8.40554,0.5244 v -50.14095 c 0,-27.57753 -1.4e-4,-50.47846 -3.1e-4,-50.89096 -1.7e-4,-0.4125 18.24397,-0.85587 40.54254,-0.98526 l 40.54285,-0.23526 -0.31672,51.23526 c -0.31321,50.66783 -0.34229,51.30418 -2.62515,57.45804 -5.04106,13.58905 -15.1252,25.3926 -27.04494,31.65624 -10.57545,5.55724 -16.20798,6.62098 -35.05837,6.62098 h -16.5399 z m 45.71894,-70.044006 c 7.53259,-2.092004 13.73714,-10.202054 13.73714,-17.955994 0,-8.13184 -7.35589,-16.91442 -15.43641,-18.43033 -4.16439,-0.78125 -10.93058,0.87467 -14.78314,3.61794 -1.52999,1.08945 -3.74931,3.85542 -4.93181,6.1466 -5.43825,10.53699 -0.0457,23.256013 11.23181,26.491695 4.62721,1.327612 5.81587,1.342798 10.18241,0.130089 z"
       style="display:inline;fill:#fbfbf9;stroke-width:1.2" />
    <path
       id="path1046"
       d="M 753.05109,19.67375 V 6.77981 l 19.25,-0.44084 c 17.43507,-0.39928 20.00426,-0.68971 27.25,-3.08047 23.22187,-7.66215 39.41601,-24.39954 47.5942,-49.19081 2.26856,-6.87688 2.31569,-7.90143 2.6797,-58.25 l 0.37051,-51.25 h 40.9278 40.92779 v 94 94 h -89.5 -89.5 z"
       style="display:inline;fill:#004390;stroke-width:1.2" />
  </g>
</svg>
