<?xml version="1.0" encoding="UTF-8" standalone="no"?>
<svg
   viewBox="0 0 250 250"
   version="1.1"
   id="svg8">
  <defs
     id="defs2">
    <clipPath
       id="clipPath867"
       clipPathUnits="userSpaceOnUse">
      <path
         id="path865"
         d="M 0,512 H 512 V 0 H 0 Z" />
    </clipPath>
    <clipPath
       clipPathUnits="userSpaceOnUse"
       id="clipPath867-5">
      <path
         d="M 0,512 H 512 V 0 H 0 Z"
         id="path865-9" />
    </clipPath>
    <clipPath
       clipPathUnits="userSpaceOnUse"
       id="clipPath1496">
      <path
         d="M 0,67.5 H 148.5 V 0 H 0 Z"
         id="path1494" />
    </clipPath>
  </defs>
  <rect
     style="display:inline;fill:#361c15;fill-opacity:1;stroke:none;stroke-width:1.13386"
     id="rect2791"
     width="250"
     height="250"
     x="0"
     y="0"
     ry="31.12924" />
  <path
     style="stroke-width:0.999994"
     fill="#ffb500"
     fill-rule="evenodd"
     d="M 58.817308,198.00032 C 42.896338,184.9742 34.479755,166.25706 34.479755,143.88825 V 37.548138 C 59.626969,24.243277 90.081169,17.502641 124.99912,17.502641 c 34.91795,0 65.37038,6.740636 90.52113,20.045497 V 143.88825 c 0,22.36881 -8.41659,41.08595 -24.3411,54.11207 -14.56681,11.91829 -60.86244,32.18783 -66.18003,34.49704 -5.31584,-2.30921 -51.611455,-22.57875 -66.181812,-34.49704 z M 160.05641,107.05025 c -0.0669,-12.699773 10.76986,-20.179568 21.12928,-20.479466 8.64993,-0.262851 14.51378,2.979569 17.28219,5.103549 V 105.3426 c -3.28285,-3.36414 -8.60574,-6.408985 -14.10896,-6.461909 -4.4602,-0.03881 -9.1078,1.921109 -9.2616,7.509779 -0.15381,5.71924 4.48319,7.97904 10.35942,11.41551 13.15609,7.71795 15.69822,14.65441 15.39769,23.82068 -0.3023,10.04833 -7.24452,21.02458 -22.80309,21.02458 -6.22625,0 -12.38003,-1.94227 -17.31224,-4.87951 v -14.46917 c 4.02002,3.57407 10.0306,6.35783 15.05298,6.39311 5.77722,0.0265 9.57803,-3.27417 9.44191,-8.75523 -0.11491,-4.93421 -2.90806,-7.61211 -9.83261,-11.67308 -12.98816,-7.60329 -15.32167,-13.85703 -15.34497,-22.21711 z m -38.17219,41.59402 c 1.12964,0.41985 2.97879,0.94732 5.11253,0.94732 9.06538,0 13.39124,-8.3001 13.39124,-25.47894 0,-17.60575 -3.7849,-24.886194 -12.92631,-24.886194 -2.13375,0 -4.29756,0.501005 -5.57746,1.129024 z m 0,45.93547 H 106.12943 V 92.159461 c 5.71182,-3.678154 12.6399,-5.588677 21.22796,-5.588677 18.79898,0 29.12657,14.231016 29.12657,37.141406 0,22.95804 -10.02883,38.67091 -27.51256,38.67091 -3.2298,0 -5.51205,-0.43221 -7.08718,-0.8944 z M 50.83561,137.56041 V 88.16024 h 15.740651 v 50.09875 c 0,4.45966 1.080138,11.0574 8.299906,11.0574 3.197983,0 5.738338,-0.74621 7.451355,-1.92111 V 88.16024 h 15.721206 v 68.1808 c -6.015883,4.07509 -14.091277,6.3102 -23.729424,6.3102 -15.581548,0 -23.483694,-8.43771 -23.483694,-25.09083 z M 207.20266,39.78502 c -11.17791,-1.035528 -22.79247,-1.718236 -34.62271,-1.718236 -43.86842,0 -90.902987,9.411487 -129.782611,44.996965 v 60.828031 c 0,19.81263 7.341751,36.35638 21.291603,47.69781 12.318156,10.01832 50.220178,27.13188 60.910178,31.84029 10.5521,-4.63608 48.36043,-21.54148 60.89427,-31.84029 14.04001,-11.54077 21.30927,-27.69819 21.30927,-47.69781 z"
     id="path1796" />
</svg>
