<?xml version="1.0" encoding="UTF-8" standalone="no"?>
<svg
  id="svg8"
   version="1.1"
   viewBox="0 0 250 250">
  <defs
     id="defs2">
    <clipPath
       clipPathUnits="userSpaceOnUse"
       id="clipPath867">
      <path
         d="M 0,512 H 512 V 0 H 0 Z"
         id="path865" />
    </clipPath>
    <clipPath
       id="clipPath867-5"
       clipPathUnits="userSpaceOnUse">
      <path
         id="path865-9"
         d="M 0,512 H 512 V 0 H 0 Z" />
    </clipPath>
    <clipPath
       clipPathUnits="userSpaceOnUse"
       id="clipPath867-0">
      <path
         d="M 0,512 H 512 V 0 H 0 Z"
         id="path865-3" />
    </clipPath>
  </defs>
  <rect
     ry="31.12924"
     y="0"
     x="0"
     height="250"
     width="250"
     id="rect2791"
     style="fill:#0072ce;stroke:none;stroke-width:1.13386;fill-opacity:1" />
  <g
     transform="matrix(3.7795276,0,0,3.7795276,-30.658632,-23.85347)"
     id="layer1">
    <g
       style="stroke-width:2.35439"
       id="g863"
       clip-path="url(#clipPath867-0)"
       transform="matrix(0.14983759,0,0,-0.14983759,5.9230848,77.742525)">
      <g
         style="stroke-width:2.35439"
         id="g869"
         transform="translate(235.2943,321.8477)">
        <path
           d="m 0,0 c 9.44,0 17.232,4.91 18.277,11.245 l 9.313,105.452 c 0,10.453 -12.195,19.005 -27.558,19.005 -15.332,0 -27.527,-8.552 -27.527,-19.005 L -18.183,11.245 C -17.169,4.91 -9.376,0 0.032,0 Z"
           style="fill:#ffb819;fill-opacity:1;fill-rule:nonzero;stroke:none;stroke-width:2.35439"
           id="path871" />
      </g>
      <g
         style="stroke-width:2.35439"
         id="g873"
         transform="translate(178.2923,288.9009)">
        <path
           d="m 0,0 c 4.751,8.173 4.371,17.359 -0.602,21.445 l -86.699,60.787 c -8.996,5.227 -22.522,-1.077 -30.188,-14.349 -7.697,-13.304 -6.335,-28.129 2.661,-33.356 l 95.98,-44.695 c 6.019,-2.218 14.16,2.059 18.88,10.231 z"
           style="fill:#ffb819;fill-opacity:1;fill-rule:nonzero;stroke:none;stroke-width:2.35439"
           id="path875" />
      </g>
      <g
         style="stroke-width:2.35439"
         id="g877"
         transform="translate(292.3377,288.9579)">
        <path
           d="m 0,0 c 4.72,-8.173 12.861,-12.449 18.879,-10.2 l 95.98,44.664 c 9.028,5.227 10.327,20.051 2.693,33.356 -7.698,13.304 -21.224,19.576 -30.22,14.349 L 0.633,21.382 C -4.308,17.295 -4.688,8.109 0.032,-0.063 Z"
           style="fill:#ffb819;fill-opacity:1;fill-rule:nonzero;stroke:none;stroke-width:2.35439"
           id="path879" />
      </g>
      <g
         style="stroke-width:2.35439"
         id="g881"
         transform="translate(235.2943,190.1207)">
        <path
           d="m 0,0 c 9.44,0 17.232,-4.878 18.277,-11.214 l 9.313,-105.451 c 0,-10.453 -12.195,-19.006 -27.558,-19.006 -15.332,0 -27.527,8.553 -27.527,19.006 l 9.312,105.451 C -17.169,-4.878 -9.376,0 0.032,0 Z"
           style="fill:#ffb819;fill-opacity:1;fill-rule:nonzero;stroke:none;stroke-width:2.35439"
           id="path883" />
      </g>
      <g
         style="stroke-width:2.35439"
         id="g885"
         transform="translate(292.3377,223.0548)">
        <path
           d="m 0,0 c 4.72,8.173 12.861,12.417 18.879,10.168 l 95.98,-44.632 c 9.028,-5.227 10.327,-20.083 2.693,-33.387 -7.698,-13.241 -21.224,-19.545 -30.22,-14.35 L 0.633,-21.445 c -4.941,4.118 -5.321,13.304 -0.601,21.477 z"
           style="fill:#ffb819;fill-opacity:1;fill-rule:nonzero;stroke:none;stroke-width:2.35439"
           id="path887" />
      </g>
      <g
         style="stroke-width:2.35439"
         id="g889"
         transform="translate(178.2923,223.0738)">
        <path
           d="m 0,0 c 4.751,-8.173 4.371,-17.359 -0.602,-21.477 l -86.699,-60.724 c -8.996,-5.226 -22.522,1.077 -30.188,14.35 -7.697,13.272 -6.335,28.129 2.661,33.355 l 95.98,44.664 c 6.019,2.249 14.16,-1.995 18.88,-10.2 z"
           style="fill:#ffb819;fill-opacity:1;fill-rule:nonzero;stroke:none;stroke-width:2.35439"
           id="path891" />
      </g>
    </g>
  </g>
</svg>
