<?xml version="1.0" encoding="UTF-8" standalone="no"?>
<svg
   viewBox="0 0 250 250"
   version="1.1"
   id="svg8">
  <defs
     id="defs2">
    <clipPath
       id="clipPath867"
       clipPathUnits="userSpaceOnUse">
      <path
         id="path865"
         d="M 0,512 H 512 V 0 H 0 Z" />
    </clipPath>
    <clipPath
       clipPathUnits="userSpaceOnUse"
       id="clipPath867-5">
      <path
         d="M 0,512 H 512 V 0 H 0 Z"
         id="path865-9" />
    </clipPath>
  </defs>
  <rect
     style="display:inline;fill:#ce4621;fill-opacity:1;stroke:none;stroke-width:1.13386"
     id="rect2791"
     width="250"
     height="250"
     x="0"
     y="0"
     ry="31.12924" />
  <g
     transform="matrix(1.0222255,0,0,1.0222255,-2.321379,-6.8640342)"
     style="display:inline;stroke-width:0.978258"
     id="g1426">
    <path
       id="path1428"
       d="m 90.646031,172.6581 c -8.58223,-1.92163 -14.78619,-8.16445 -16.49513,-16.59845 -0.58984,-2.91098 -0.40388,-7.46306 0.41071,-10.05345 1.81595,-5.77468 5.62574,-10.27279 10.85385,-12.81481 3.13362,-1.52363 4.90391,-1.96821 8.49968,-2.13458 5.77591,-0.26722 10.939019,1.60826 15.072729,5.47515 10.89487,10.19162 8.32385,27.82059 -5.00389,34.31069 -4.018369,1.95678 -9.421949,2.69228 -13.337949,1.81545 z m 6.58055,-12.43691 c 5.456869,-2.04167 7.278719,-9.25953 3.532759,-13.99616 -3.287669,-4.15715 -9.709189,-3.83177 -12.552429,0.63602 -1.76716,2.77686 -2.01149,6.06188 -0.66757,8.97537 1.84421,3.99803 5.86122,5.81628 9.68724,4.38477 z m -53.35054,11.89426 c -0.0959,-0.0959 -0.17435,-9.15785 -0.17435,-20.13768 v -19.96333 h 6.66673 6.66675 l 0.0676,14.31868 0.0676,14.31867 7.82383,0.0693 c 5.23972,0.0464 7.93906,0.16499 8.17275,0.35894 0.47613,0.39515 0.50844,10.42257 0.0351,10.8959 -0.2365,0.2365 -3.86675,0.31383 -14.73276,0.31383 -7.93042,0 -14.49739,-0.0785 -14.59329,-0.17435 z m 75.337949,0.0178 c -0.10567,-0.10567 -0.19213,-9.18166 -0.19213,-20.16886 v -19.97672 l 13.1418,0.0849 c 12.92644,0.0835 13.1718,0.0948 14.9725,0.69092 3.30627,1.09451 5.38129,2.77447 6.50446,5.26613 1.68476,3.73744 0.83856,8.58468 -1.93628,11.09158 -0.60242,0.54425 -1.49897,1.1582 -1.99232,1.36434 -0.49335,0.20614 -0.8333,0.47789 -0.75542,0.60389 0.0779,0.126 0.87701,0.5807 1.77585,1.01044 2.80443,1.34078 4.15847,3.05736 4.8016,6.08718 0.86158,4.05899 -0.0862,7.46308 -2.79807,10.04979 -1.70076,1.62224 -3.32782,2.46495 -6.40785,3.31883 -1.96829,0.54567 -2.67246,0.5783 -14.4954,0.67163 -6.83463,0.0539 -12.51306,0.0116 -12.61874,-0.094 z m 21.39781,-10.76192 c 2.32701,-1.20043 2.21123,-3.96979 -0.20442,-4.88944 -0.87515,-0.33316 -1.88168,-0.4091 -4.64771,-0.35065 l -3.53063,0.0746 -0.0754,2.59666 c -0.0415,1.42817 -0.01,2.76718 0.07,2.97558 0.12036,0.31364 0.76399,0.35833 3.73682,0.25948 2.97616,-0.099 3.773,-0.2131 4.65138,-0.66623 z m -1.18597,-14.08988 c 2.19019,-0.87634 2.4511,-3.49175 0.46535,-4.66477 -0.85314,-0.50397 -5.78918,-0.89556 -7.10998,-0.56406 -0.67818,0.17022 -0.68293,0.18924 -0.68293,2.73812 0,1.4117 0.0785,2.64517 0.17436,2.74106 0.0959,0.0959 1.50577,0.17435 3.13305,0.17435 2.12022,0 3.2595,-0.12036 4.02015,-0.42471 z m 20.06754,24.85676 c -0.10788,-0.1084 -0.19614,-9.18059 -0.19614,-20.16042 v -19.96333 h 12.43635 c 10.535,0 12.72414,0.065 14.31868,0.42511 2.24471,0.50696 4.53535,1.60969 5.89457,2.83765 3.73334,3.37285 3.75023,10.48556 0.0329,13.84397 -0.60243,0.54425 -1.49898,1.1582 -1.99233,1.36434 -0.49336,0.20614 -0.83329,0.47789 -0.75543,0.60389 0.0779,0.126 0.87701,0.5807 1.77587,1.01044 2.80435,1.34075 4.15837,3.05726 4.8017,6.08718 1.38477,6.52188 -1.9722,11.38717 -9.21451,13.35469 -1.93579,0.5259 -2.81104,0.5668 -14.4829,0.67665 -6.83243,0.0643 -12.51087,0.0282 -12.61875,-0.0802 z m 21.32609,-10.68366 c 2.37142,-1.14951 2.29173,-4.04814 -0.13672,-4.97266 -0.87514,-0.33316 -1.88167,-0.4091 -4.64769,-0.35066 l -3.53064,0.0746 -0.0754,2.59667 c -0.0415,1.42816 -0.0106,2.76547 0.0685,2.97179 0.22705,0.59169 6.97662,0.33238 8.32193,-0.31974 z m -1.11826,-14.17311 c 1.81438,-0.72596 2.3527,-2.57054 1.16285,-3.98458 -0.85151,-1.01198 -2.58774,-1.39132 -5.90098,-1.28929 l -2.45866,0.0757 -0.0758,2.46489 c -0.0417,1.3557 -0.016,2.62085 0.0572,2.81143 0.20624,0.53746 5.82907,0.47653 7.21542,-0.0782 z m 29.3518,24.83518 c -0.25163,-0.10154 -0.32691,-1.99312 -0.32691,-8.21445 v -8.08254 l -7.09127,-11.5671 c -3.90019,-6.36189 -7.14988,-11.71983 -7.22152,-11.90652 -0.10532,-0.27447 1.35603,-0.32616 7.63629,-0.2701 l 7.76656,0.0693 3.23925,5.48948 c 1.78158,3.01921 3.34584,5.525 3.47612,5.56842 0.13028,0.0434 1.74113,-2.45625 3.57966,-5.55484 l 3.34279,-5.63381 h 6.74316 c 3.70874,0 6.79339,0.0883 6.85479,0.19614 0.0614,0.10788 -3.22692,5.42315 -7.30736,11.81169 l -7.41899,11.61554 v 8.01216 c 0,5.88298 -0.0834,8.09556 -0.31384,8.326 -0.22754,0.22755 -2.00717,0.30815 -6.47282,0.29318 -3.38745,-0.0113 -6.30611,-0.08 -6.48591,-0.15255 z m 19.94154,-2.18055 c -0.0889,-0.14384 -0.037,-0.26153 0.11533,-0.26153 0.15233,0 0.27696,0.11769 0.27696,0.26153 0,0.14384 -0.0519,0.26153 -0.11532,0.26153 -0.0634,0 -0.18807,-0.11769 -0.27697,-0.26153 z m -1.26405,-0.17435 c -0.33398,-0.33399 -0.18427,-1.65635 0.18753,-1.65635 0.24201,0 0.3413,0.26168 0.29974,0.78996 -0.0681,0.86594 -0.21916,1.1345 -0.48727,0.86639 z M 70.639111,126.65942 c -6.29844,-1.40979 -11.30237,-5.20243 -14.35422,-10.87953 -1.53358,-2.85281 -2.14505,-5.27351 -2.30959,-9.14339 -0.11862,-2.78987 -0.0563,-3.60881 0.41789,-5.49209 1.75391,-6.965613 6.67434,-12.469673 13.31351,-14.892663 11.78587,-4.30132 24.62688,2.61382 27.67277,14.902343 0.71712,2.89325 0.66504,7.5751 -0.11476,10.31556 -1.17811,4.14023 -3.80027,8.12039 -7.15643,10.86271 -1.9675,1.60764 -5.70211,3.49033 -8.05414,4.06023 -2.46698,0.59776 -7.32186,0.73535 -9.41503,0.26683 z m 7.44607,-12.71438 c 1.69852,-0.7984 3.02614,-2.15934 3.95814,-4.05747 0.66455,-1.35346 0.75686,-1.82853 0.75686,-3.89521 0,-1.98899 -0.10542,-2.57851 -0.68026,-3.8041 -1.38671,-2.956473 -3.69153,-4.655383 -6.63641,-4.891763 -2.20791,-0.17723 -3.93167,0.41975 -5.63567,1.95179 -2.09443,1.883093 -2.98509,4.023103 -2.91231,6.997513 0.15083,6.1632 5.92899,10.15324 11.14965,7.69924 z m 21.18084,11.98886 c -0.0686,-0.1798 -0.0944,-9.21233 -0.0572,-20.0723 l 0.0676,-19.745393 h 12.814899 c 11.61287,0 12.97259,0.0447 14.49615,0.47694 3.65688,1.03737 6.02736,2.82901 7.22086,5.4576 0.65692,1.44681 0.74879,1.95544 0.7468,4.13429 -0.002,1.95149 -0.12775,2.8029 -0.58714,3.968503 -0.66617,1.69027 -2.1424,3.34403 -3.68966,4.13339 -0.5813,0.29655 -1.05691,0.64847 -1.05691,0.78203 0,0.13357 0.7415,0.59674 1.64777,1.02926 2.1029,1.00363 3.68726,2.60283 4.41656,4.45796 0.75468,1.9197 0.82996,6.03956 0.14598,7.98954 -1.34387,3.83133 -5.30174,6.52414 -10.93169,7.43759 -2.56851,0.41672 -25.072939,0.37266 -25.234059,-0.0494 z M 119.9166,115.77356 c 2.75696,-0.76545 3.39843,-3.71083 1.10982,-5.09584 -0.71791,-0.43447 -1.34798,-0.5009 -4.7506,-0.5009 h -3.92293 l -0.0754,2.59666 c -0.0415,1.42817 -0.0157,2.75216 0.0572,2.9422 0.16803,0.43788 6.05155,0.48279 7.58196,0.0579 z m -0.11305,-14.48721 c 2.19799,-1.13663 2.08503,-3.998433 -0.19198,-4.864153 -1.10807,-0.42129 -6.15564,-0.61752 -6.81447,-0.26494 -0.529,0.28311 -0.57498,0.50218 -0.57498,2.73945 0,1.337453 0.0785,2.510193 0.17436,2.606083 0.0959,0.0959 1.63167,0.17436 3.41285,0.17436 2.36166,0 3.44313,-0.10581 3.99422,-0.3908 z m 19.73784,24.64755 c -0.0686,-0.1798 -0.0944,-9.21233 -0.0572,-20.0723 l 0.0676,-19.745393 11.76877,-0.0717 c 14.50783,-0.0884 16.1737,0.11335 19.53389,2.36565 1.78688,1.19774 3.13309,2.93335 3.6658,4.72617 0.52188,1.75638 0.37565,5.28514 -0.2908,7.017223 -0.64803,1.68429 -2.12032,3.33985 -3.67576,4.13339 -0.5813,0.29655 -1.0569,0.65596 -1.0569,0.79869 0,0.14273 0.64371,0.5442 1.43047,0.89214 3.27275,1.44737 4.98026,4.02216 5.28259,7.96576 0.47265,6.16538 -3.1909,10.31542 -10.42373,11.80791 -2.19073,0.45205 -3.62435,0.50285 -14.27762,0.50594 -9.23554,0.003 -11.86984,-0.0685 -11.96716,-0.32347 z m 20.65058,-10.16034 c 2.75695,-0.76545 3.39843,-3.71083 1.10982,-5.09584 -0.71791,-0.43447 -1.34799,-0.5009 -4.75061,-0.5009 h -3.92292 l -0.0754,2.59666 c -0.0415,1.42817 -0.0157,2.75216 0.0572,2.9422 0.16803,0.43788 6.05154,0.48279 7.58195,0.0579 z m -0.2667,-14.46108 c 1.81321,-0.75761 2.28184,-2.666053 1.00548,-4.094573 -0.61476,-0.68803 -0.98819,-0.84059 -2.5499,-1.04168 -2.47221,-0.31834 -4.76336,-0.31066 -5.3775,0.018 -0.44444,0.23786 -0.50586,0.56594 -0.50586,2.70246 0,1.337453 0.0785,2.510193 0.17436,2.606083 0.34497,0.34499 6.34932,0.18745 7.25342,-0.19031 z m 29.24295,24.63895 c -0.23605,-0.23605 -0.31828,-2.37016 -0.31828,-8.25981 v -7.94152 l -7.06127,-11.525783 c -3.8837,-6.33918 -7.06127,-11.688 -7.06127,-11.88628 0,-0.29965 1.28609,-0.34879 7.61948,-0.29116 l 7.61947,0.0693 3.23303,5.49209 c 1.77817,3.02065 3.37465,5.4921 3.54774,5.4921 0.17309,0 1.79171,-2.47145 3.59694,-5.4921 l 3.28223,-5.49209 6.89478,-0.0698 c 5.70935,-0.0578 6.87145,-0.009 6.75901,0.28408 -0.0747,0.19463 -3.44046,5.54642 -7.47949,11.89289 l -7.3437,11.539033 -0.0691,8.18381 -0.0691,8.1838 -6.41608,0.0698 c -4.77079,0.0519 -6.4977,-0.0118 -6.73435,-0.24844 z m -177.047709,-20.02445 0.067,-20.072303 h 6.53821 6.53821 l 0.13076,7.32279 0.13077,7.322803 5.68824,0.0705 c 3.12853,0.0388 5.71298,0.0388 5.74321,0 0.0302,-0.0388 0.1185,-3.365743 0.19615,-7.393283 l 0.14117,-7.32279 h 6.53822 6.5382 l 0.067,20.072303 0.067,20.07231 h -6.67059 -6.6706 v -7.04259 c 0,-6.05365 -0.0577,-7.1003 -0.41097,-7.45356 -0.34477,-0.34477 -1.21128,-0.41098 -5.37853,-0.41098 -2.92412,0 -5.17565,0.11137 -5.47341,0.27073 -0.48128,0.25758 -0.50587,0.61977 -0.50587,7.45356 v 7.18284 h -6.6706 -6.6706 z"
       style="display:inline;fill:#fdfbfa;fill-opacity:1;stroke-width:0.978255" />
  </g>
</svg>
