<?xml version="1.0" encoding="UTF-8" standalone="no"?>
<svg
   viewBox="0 0 250 250"
   version="1.1"
   id="svg8">
  <defs
     id="defs2">
    <clipPath
       id="clipPath867"
       clipPathUnits="userSpaceOnUse">
      <path
         id="path865"
         d="M 0,512 H 512 V 0 H 0 Z" />
    </clipPath>
    <clipPath
       clipPathUnits="userSpaceOnUse"
       id="clipPath867-5">
      <path
         d="M 0,512 H 512 V 0 H 0 Z"
         id="path865-9" />
    </clipPath>
  </defs>
  <rect
     style="display:inline;fill:#eb7c16;fill-opacity:1;stroke:none;stroke-width:1.13386"
     id="rect2791"
     width="250"
     height="250"
     x="0"
     y="0"
     ry="31.12924" />
  <g
     style="display:inline;stroke-width:7.61905"
     transform="matrix(0.021,0,0,-0.021,20,230)"
     id="g1161">
    <path
       id="path1163"
       style="fill:#ffffff;fill-opacity:1;fill-rule:nonzero;stroke:none;stroke-width:7.61905"
       d="M 0,10000 H 10000 V 0 H 0 v 10000 0" />
    <path
       id="path1165"
       style="fill:#eb7c16;fill-opacity:1;fill-rule:nonzero;stroke:none;stroke-width:7.61905"
       d="m 235,9765 c 1992,0 3983,0 5975,0 481,0 962,1 1442,-1 -133,-135 -269,-269 -403,-404 53,-56 109,-108 162,-163 122,84 260,151 410,162 135,14 271,-21 395,-75 47,-20 91,-52 144,-57 52,3 91,49 109,95 15,32 1,70 -24,93 -116,117 -233,232 -348,349 554,3 1108,0 1661,1 0,-540 1,-1081 0,-1622 -114,112 -225,226 -338,338 -30,31 -79,47 -120,28 -27,-13 -53,-34 -65,-63 -15,-58 11,-115 34,-167 70,-148 101,-315 80,-478 -14,-111 -54,-220 -114,-315 -16,-23 -31,-47 -45,-71 58,-50 107,-110 166,-159 132,136 268,269 402,404 0,-903 1,-1806 0,-2709 -26,-9 -55,-27 -82,-14 -36,23 -63,57 -93,86 -324,322 -645,647 -970,968 -129,-129 -256,-259 -387,-385 69,-78 146,-147 218,-222 260,-260 520,-520 781,-780 22,-23 48,-43 60,-73 4,-33 -19,-61 -28,-91 -13,-35 15,-77 52,-78 33,-6 61,16 82,38 122,123 245,245 367,367 0,-1508 0,-3017 0,-4525 -1508,0 -3017,0 -4526,0 116,116 232,231 348,347 -395,394 -789,788 -1183,1183 -129,-124 -253,-253 -381,-378 -27,-28 -57,-55 -70,-93 -6,-37 28,-72 64,-74 32,4 59,25 91,32 28,2 50,-20 70,-38 234,-236 469,-470 704,-705 59,-62 123,-118 178,-182 25,-28 8,-64 -6,-92 -903,0 -1805,0 -2707,0 213,213 426,426 639,639 40,38 81,82 87,140 9,67 -59,134 -126,120 -56,-11 -102,-55 -160,-55 -37,3 -65,30 -90,54 -509,508 -1017,1017 -1525,1525 -34,34 -75,67 -87,116 -2,58 39,105 54,158 19,67 -44,140 -112,135 -47.004,-3 -89,-30 -121,-63 -220,-223 -444,-443 -664,-666 -1,2473 0,4947 0,7420 v 0" />
    <path
       id="path1167"
       style="fill:#ffffff;fill-opacity:1;fill-rule:nonzero;stroke:none;stroke-width:7.61905"
       d="m 7104,9216 c 9,10 25,19 34,4 697,-696 1394,-1393 2090,-2090 -244,-244 -489,-489 -733,-734 -32,-30 -71,-55 -115,-58 -61,-5 -122,50 -117,112 2,61 54,108 55,170 2,39 -28,68 -53,95 -517,516 -1033,1033 -1550,1550 -29,28 -61,63 -105,60 -65,-1 -114,-61 -180,-54 -38,-1 -69,29 -88,60 -26,54 -2,119 37,159 242,242 484,484 725,726 v 0" />
    <path
       id="path1169"
       style="fill:#ffffff;fill-opacity:1;fill-rule:nonzero;stroke:none;stroke-width:7.61905"
       d="m 8108,9013 c 20,37 58,71 103,65 50,-4 86,-45 119,-78 200,-201 400,-401 600,-601 38,-37 83,-73 92,-128 5,-57 -47,-108 -102,-114 -46,-1 -88,24 -128,46 -85,50 -181,90 -282,85 -52,1 -102,-20 -149,-41 -55,59 -118,112 -170,173 16,45 37,88 40,136 7,109 -37,213 -92,304 -28,45 -50,101 -31,153 v 0" />
    <path
       id="path1171"
       style="fill:#ffffff;fill-opacity:1;fill-rule:nonzero;stroke:none;stroke-width:7.61905"
       d="m 3701,8483 c 108,114 222,221 330,334 103,-100 203,-201 304,-302 33,-32 3,-86 -34,-99 -31,-4 -58,17 -86,27 -108,53 -242,59 -350,1 -28,-12 -51,-36 -81,-41 -30,24 -55,54 -83,80 v 0" />
    <path
       id="path1173"
       style="fill:#ffffff;fill-opacity:1;fill-rule:nonzero;stroke:none;stroke-width:7.61905"
       d="m 3633,8419 c 147,-142 289,-289 434,-432 227,-226 453,-454 681,-680 -130,-132 -261,-262 -392,-392 -27,-30 -81,-43 -107,-6 -32,34 3,76 13,111 12,26 -9,49 -26,67 -262,261 -523,522 -784,784 -24,22 -44,49 -73,64 -40,9 -71,-27 -110,-29 -30,3 -58,33 -54,64 2,24 16,45 33,62 128,129 258,256 385,387 v 0" />
    <path
       id="path1175"
       style="fill:#ffffff;fill-opacity:1;fill-rule:nonzero;stroke:none;stroke-width:7.61905"
       d="m 4155,8259 c -13,33 10,73 45,78 26,4 47,-16 65,-33 108,-108 216,-217 325,-324 19,-21 46,-40 48,-71 4,-31 -26,-61 -58,-58 -42,0 -74,33 -112,47 -56,26 -124,28 -179,-2 -29,29 -58,59 -88,86 13,44 25,91 14,137 -8,52 -44,92 -60,140 v 0" />
    <path
       id="path1177"
       style="fill:#ffffff;fill-opacity:1;fill-rule:nonzero;stroke:none;stroke-width:7.61905"
       d="m 6070,8181 c 27,27 61,47 99,52 67,10 137,-55 124,-123 -9,-60 -59,-108 -55,-171 10,-44 46,-74 75,-105 511,-510 1022,-1019 1531,-1530 28,-25 56,-58 96,-58 60,0 106,45 163,55 66,11 131,-54 123,-120 -4,-45 -31,-84 -62,-115 -257,-256 -513,-514 -770,-770 -33,-33 -75,-63 -124,-63 -54,-3 -106,43 -113,96 -7,70 58,122 56,192 -3,33 -26,60 -48,84 -449,448 -897,897 -1346,1345 371,-689 745,-1376 1116,-2065 6,-10 11,-21 16,-33 -27,-25 -53,-52 -79,-79 -743,366 -1485,736 -2227,1103 -117,58 -233,126 -365,142 -44,6 -74,-30 -106,-53 -33,-26 -77,-42 -118,-29 -49,22 -83,80 -68,133 10,36 35,66 61,92 240,239 479,479 719,717 374,-183 749,-362 1124,-545 12,-9 25,-18 36,-30 6,7 11,14 17,21 l -14,-2 c -197,375 -404,745 -601,1120 248,246 493,493 740,739 v 0" />
    <path
       id="path1179"
       style="fill:#ffffff;fill-opacity:1;fill-rule:nonzero;stroke:none;stroke-width:7.61905"
       d="m 4757,8012 c 18,33 69,37 93,9 101,-102 204,-204 306,-306 -114,-115 -228,-229 -344,-343 -26,30 -61,54 -81,89 33,56 68,113 77,179 17,91 2,187 -37,271 -11,32 -35,69 -14,101 v 0" />
    <path
       id="path1181"
       style="fill:#ffffff;fill-opacity:1;fill-rule:nonzero;stroke:none;stroke-width:7.61905"
       d="m 3078,7862 c 20,21 42,43 71,50 29,6 65,-12 69,-44 7,-35 -19,-64 -26,-98 -4,-27 18,-46 34,-64 267,-267 533,-534 800,-800 18,-17 37,-38 63,-44 32,3 59,24 90,31 38,4 73,-37 61,-73 -5,-27 -26,-47 -44,-66 -130,-130 -260,-260 -390,-389 -23,-23 -53,-47 -87,-39 -19,8 -35,23 -42,42 -10,44 37,80 26,124 -10,17 -24,30 -37,44 -122,121 -243,244 -366,365 -43,-44 -86,-87 -130,-130 -30,29 -60,58 -88,89 44,43 87,87 131,130 -108,106 -215,214 -322,321 -23,22 -43,46 -70,62 -49,16 -96,-53 -143,-15 -38,27 -26,81 5,109 131,133 264,263 395,395 v 0" />
    <path
       id="path1183"
       style="fill:#ffffff;fill-opacity:1;fill-rule:nonzero;stroke:none;stroke-width:7.61905"
       d="m 2566,7343 c 30,19 75,7 89,-27 14,-41 -23,-76 -24,-116 -1,-21 16,-36 29,-50 277,-277 553,-554 830,-830 50,-54 114,39 168,-1 35,-28 23,-83 -7,-109 -130,-131 -261,-260 -390,-391 -21,-20 -42,-44 -71,-53 -32,-9 -71,11 -75,45 -6,40 30,71 28,110 -5,17 -16,31 -28,44 -262,261 -524,523 -785,785 -25,23 -46,52 -79,64 -36,2 -66,-25 -101,-29 -30,-1 -56,26 -57,55 -3,31 19,56 40,77 130,130 260,260 389,390 14,13 27,26 44,36 v 0" />
    <path
       id="path1185"
       style="fill:#ffffff;fill-opacity:1;fill-rule:nonzero;stroke:none;stroke-width:7.61905"
       d="m 1843,6628 c 60,58 118,118 178,177 105,-102 208,-208 313,-311 18,-20 40,-38 50,-64 12,-49 -44,-103 -93,-81 -49,22 -88,61 -135,87 -79,49 -171,80 -265,69 -27,28 -57,54 -81,84 8,16 21,27 33,39 v 0" />
    <path
       id="path1187"
       style="fill:#ffffff;fill-opacity:1;fill-rule:nonzero;stroke:none;stroke-width:7.61905"
       d="m 1407,6192 c 112,110 222,221 333,332 210,-211 421,-422 632,-632 116,-115 229,-232 346,-345 33,-37 77,-6 113,7 36,16 78,-16 77,-54 0,-26 -15,-48 -32,-66 -136,-135 -270,-270 -405,-405 -19,-19 -43,-38 -71,-36 -31,-3 -61,27 -58,57 2,32 27,58 27,90 2,27 -21,44 -37,62 -319,317 -635,637 -955,953 10,13 19,25 30,37 v 0" />
    <path
       id="path1189"
       style="fill:#ffffff;fill-opacity:1;fill-rule:nonzero;stroke:none;stroke-width:7.61905"
       d="m 8912,6290 c 124,-122 247,-245 369,-369 39,-37 11,-111 -41,-119 -48,-7 -85,31 -122,56 -99,68 -216,132 -340,111 -33,30 -65,61 -92,96 77,74 151,150 226,225 v 0" />
    <path
       id="path1191"
       style="fill:#ffffff;fill-opacity:1;fill-rule:nonzero;stroke:none;stroke-width:7.61905"
       d="m 1305,6087 c 37,-14 60,-56 90,-82 -16,-116 39,-225 104,-316 19,-29 42,-56 54,-89 13,-44 -30,-90 -74,-85 -25,0 -42,21 -58,36 -109,110 -219,218 -328,328 72,68 139,141 212,208 v 0" />
    <path
       id="path1193"
       style="fill:#ffffff;fill-opacity:1;fill-rule:nonzero;stroke:none;stroke-width:7.61905"
       d="m 3530,5523 c 199,64 415,71 620,29 348,-74 656,-278 902,-531 241,-244 433,-550 498,-891 36,-187 28,-383 -26,-566 -53,-181 -149,-348 -270,-492 -52,55 -109,106 -159,162 0,27 17,50 22,76 27,88 0,187 -67,251 -494,495 -990,990 -1484,1485 -45,46 -102,83 -167,88 -53,7 -105,-12 -155,-30 -20,-11 -33,14 -46,24 -40,43 -84,82 -124,126 0,3 -1,9 -1,12 133,114 289,203 457,257 v 0" />
    <path
       id="path1195"
       style="fill:#ffffff;fill-opacity:1;fill-rule:nonzero;stroke:none;stroke-width:7.61905"
       d="m 4878,5578 c 46,-15 88,-38 131,-60 161,-78 321,-159 483,-238 14,-7 27,-18 39,-29 136,-138 273,-274 410,-411 74,-79 167,-140 268,-178 71,-27 151,-27 222,-2 36,12 75,26 113,14 38,-15 66,-53 69,-94 -3,-55 -38,-101 -75,-139 -122,-124 -246,-247 -370,-369 -33,-30 -71,-61 -117,-66 -66,-10 -131,60 -111,124 19,65 45,131 34,199 -16,114 -81,215 -153,302 -271,272 -543,543 -815,816 -42,44 -88,84 -128,131 v 0" />
    <path
       id="path1197"
       style="fill:#ffffff;fill-opacity:1;fill-rule:nonzero;stroke:none;stroke-width:7.61905"
       d="m 7928,5306 c 75,75 151,150 226,226 33,-27 62,-59 93,-89 -13,-100 21,-199 73,-283 27,-48 66,-89 90,-139 13,-24 4,-51 -5,-75 126,-85 237,-193 325,-316 101,-143 172,-313 168,-491 1,-169 -72,-331 -179,-459 -29,30 -63,57 -88,91 5,37 23,73 14,110 -10,48 -47,82 -80,115 -264,263 -527,526 -790,789 -26,26 -57,50 -94,53 -35,4 -70,-6 -102,-17 -31,29 -62,60 -92,90 133,114 306,187 483,178 68,2 134,-14 200,-29 -80,83 -165,161 -242,246 v 0" />
    <path
       id="path1199"
       style="fill:#ffffff;fill-opacity:1;fill-rule:nonzero;stroke:none;stroke-width:7.61905"
       d="m 2695,4719 c 55,153 142,293 245,418 51,-52 105,-102 155,-155 10,-32 -16,-62 -21,-94 -26,-86 8,-180 71,-242 486,-487 973,-973 1460,-1460 47,-51 104,-99 176,-110 64,-10 127,12 186,34 54,-54 108,-107 162,-161 -118,-103 -255,-184 -401,-241 -220,-85 -466,-99 -697,-48 -351,77 -660,288 -907,545 -228,239 -412,532 -477,859 -44,217 -30,447 48,655 v 0" />
    <path
       id="path1201"
       style="fill:#ffffff;fill-opacity:1;fill-rule:nonzero;stroke:none;stroke-width:7.61905"
       d="m 7240,4430 c 12,152 79,297 179,411 29,-30 60,-60 90,-90 -11,-36 -28,-74 -18,-112 6,-34 29,-61 53,-85 264,-263 526,-527 790,-790 31,-30 61,-66 105,-78 40,-11 81,3 120,15 30,-30 61,-60 90,-92 -126,-104 -283,-177 -449,-177 -161,-7 -319,50 -453,134 -97,62 -186,137 -260,224 35,-117 27,-248 -28,-358 -54,-108 -138,-196 -221,-281 -30,30 -61,61 -92,91 26,42 43,92 27,141 -19,50 -60,86 -96,124 -74,75 -149,150 -224,225 -44,41 -91,88 -154,92 -37,4 -70,-15 -101,-33 -31,30 -61,61 -92,91 120,121 257,246 433,268 144,24 289,-38 391,-137 -64,128 -104,272 -90,417 v 0" />
    <path
       id="path1203"
       style="fill:#ffffff;fill-opacity:1;fill-rule:nonzero;stroke:none;stroke-width:7.61905"
       d="m 1969,4081 c 30,29 69,51 111,54 69,4 132,-68 113,-135 -15,-51 -52,-96 -54,-151 4,-48 44,-82 76,-114 513,-513 1027,-1027 1540,-1540 24,-23 51,-46 85,-49 58,0 103,43 158,56 66,13 132,-47 129,-113 -2,-45 -27,-86 -58,-118 -258,-258 -517,-517 -775,-775 -34,-33 -76,-62 -125,-62 -60,-2 -116,55 -111,116 6,60 56,108 57,170 -2,37 -31,65 -54,91 -230,231 -461,460 -690,690 -9,7 -21,27 -34,13 -80,-77 -157,-158 -237,-235 -54,54 -108,108 -162,163 77,81 157,160 238,238 0,4 1,13 1,17 -217,213 -430,429 -646,644 -33,31 -64,70 -110,81 -63,4 -112,-45 -171,-56 -76,-13 -145,73 -119,144 13,50 53,86 88,120 250,251 501,500 750,751 v 0" />
    <path
       id="path1205"
       style="fill:#ffffff;fill-opacity:1;fill-rule:nonzero;stroke:none;stroke-width:7.61905"
       d="m 6434,3811 c 120,-112 233,-232 351,-347 224,-225 449,-450 674,-675 16,-13 31,-31 52,-35 43,-4 77,38 120,30 26,-9 50,-34 47,-63 0,-39 -33,-66 -57,-92 -141,-139 -280,-280 -421,-419 -31,-34 -89,-17 -108,21 -28,47 48,97 8,140 -290,289 -580,579 -869,869 -21,19 -39,43 -64,56 -43,12 -77,-24 -117,-29 -31,3 -61,30 -59,62 -3,35 23,62 45,85 133,132 266,265 398,397 v 0" />
    <path
       id="path1207"
       style="fill:#ffffff;fill-opacity:1;fill-rule:nonzero;stroke:none;stroke-width:7.61905"
       d="m 5542,2920 c 119,117 235,238 356,353 107,-108 215,-215 322,-323 36,-35 -2,-88 -39,-104 -26,-3 -50,13 -73,23 -92,45 -198,67 -299,41 -64,-13 -120,-49 -176,-82 -30,31 -60,62 -91,92 v 0" />
    <path
       id="path1209"
       style="fill:#ffffff;fill-opacity:1;fill-rule:nonzero;stroke:none;stroke-width:7.61905"
       d="m 5056,2433 c 138,140 278,277 416,416 224,-221 445,-446 670,-667 172,-171 342,-344 515,-514 -134,-138 -272,-272 -406,-409 -19,-21 -46,-33 -71,-44 -25,9 -56,18 -64,46 -15,47 34,84 28,130 -20,39 -55,67 -85,98 -243,243 -486,486 -729,729 -43,40 -79,88 -130,118 -51,10 -97,-55 -146,-20 -42,27 -30,87 2,117 v 0" />
    <path
       id="path1211"
       style="fill:#ffffff;fill-opacity:1;fill-rule:nonzero;stroke:none;stroke-width:7.61905"
       d="m 6026,2681 c -16,41 22,89 65,82 20,-5 35,-18 49,-32 105,-106 211,-210 315,-316 34,-35 78,-65 92,-115 -13,-22 -27,-52 -57,-55 -49,-5 -85,34 -129,50 -60,30 -133,30 -193,-1 -32,32 -63,64 -95,95 22,47 32,101 16,151 -12,51 -46,93 -63,141 v 0" />
    <path
       id="path1213"
       style="fill:#ffffff;fill-opacity:1;fill-rule:nonzero;stroke:none;stroke-width:7.61905"
       d="m 6669,2420 c 21,32 72,37 97,7 108,-109 218,-217 325,-327 -123,-120 -241,-246 -367,-363 -29,31 -60,61 -90,92 107,132 122,323 50,475 -13,36 -41,80 -15,116 v 0" />
    <path
       id="path1215"
       style="fill:#eb7c16;fill-opacity:1;fill-rule:nonzero;stroke:none;stroke-width:7.61905"
       d="m 235,2022 c 40,16 77.996,41 122.004,40 C 410,2052 442.996,2005 480,1970 982.996,1469 1484,967 1986,466 c 28,-31 64,-62 69,-106 -2,-43 -25,-81 -43,-119 -593,1 -1184.996,1 -1777,1 0,593 -1,1187 0,1780 v 0" />
    <path
       id="path1217"
       style="fill:#ffffff;fill-opacity:1;fill-rule:nonzero;stroke:none;stroke-width:7.61905"
       d="m 4890,2049 c 178,15 355,-49 502,-146 115,-77 222,-166 304,-277 98,-131 158,-291 159,-456 3,-188 -71,-378 -205,-511 -31,30 -61,60 -91,91 18,34 39,70 33,110 -10,60 -51,109 -92,150 -225,225 -450,450 -675,675 -46,45 -98,94 -166,99 -37,4 -70,-15 -101,-33 -29,32 -69,56 -87,96 110,113 260,192 419,202 v 0" />
  </g>
</svg>
