<?xml version="1.0" encoding="UTF-8" standalone="no"?>
<svg
   viewBox="0 0 250 250"
   version="1.1"
   id="svg8">
  <defs
     id="defs2">
    <clipPath
       id="clipPath867"
       clipPathUnits="userSpaceOnUse">
      <path
         id="path865"
         d="M 0,512 H 512 V 0 H 0 Z" />
    </clipPath>
    <clipPath
       clipPathUnits="userSpaceOnUse"
       id="clipPath867-5">
      <path
         d="M 0,512 H 512 V 0 H 0 Z"
         id="path865-9" />
    </clipPath>
    <clipPath
       clipPathUnits="userSpaceOnUse"
       id="clipPath1496">
      <path
         d="M 0,67.5 H 148.5 V 0 H 0 Z"
         id="path1494" />
    </clipPath>
  </defs>
  <rect
     style="display:inline;fill:#ffffff;fill-opacity:1;stroke:none;stroke-width:1.13386"
     id="rect2791"
     width="250"
     height="250"
     x="0"
     y="0"
     ry="31.12924" />
  <g
     style="stroke-width:0.765425"
     id="g1492"
     clip-path="url(#clipPath1496)"
     transform="matrix(1.7419505,0,0,-1.7419505,-3.9032918,192.61102)">
    <g
       style="stroke-width:0.765425"
       id="g1498"
       transform="translate(37.7681,32.8442)" />
    <g
       style="stroke-width:0.765425"
       id="g1502"
       transform="translate(109.5225,35.3569)" />
    <g
       style="stroke-width:0.765425"
       id="g1506"
       transform="translate(118.1377,25.7593)" />
    <g
       style="stroke-width:0.765425"
       id="g1510"
       transform="translate(9.6289,43.5796)">
      <path
         d="M 0,0 -0.212,1.507 64.695,10.651 64.802,10.636 128.953,1.507 128.739,0 64.693,9.115 Z m 108.5088,-17.8203 c -0.134,0 -0.241,0.055 -0.327,0.167 -0.089,0.117 -0.137,0.314 -0.137,0.582 0,1.403 0.291,3.055 0.863,4.913 0.57,1.852 1.075,2.998 1.499,3.407 0.291,0.281 0.812,0.424 1.547,0.424 0.81,0 1.539,-0.181 2.168,-0.539 l -0.237,-1.1 c -0.199,-0.933 -0.55,-1.919 -1.042,-2.93 -0.495,-1.013 -1.151,-2.035 -1.957,-3.04 -0.604,-0.758 -1.171,-1.299 -1.685,-1.608 -0.292,-0.182 -0.524,-0.276 -0.692,-0.276 m 14.104,9.323 c 0.496,0 0.984,-0.09 1.453,-0.264 0.464,-0.173 0.954,-0.481 1.459,-0.917 l 0.147,-1.335 h 0.923 l 0.006,0.068 c 0.131,1.17 0.306,2.229 0.523,3.147 l 0.013,0.059 -0.053,0.027 c -0.528,0.264 -1.058,0.461 -1.574,0.588 -0.52,0.127 -1.041,0.192 -1.548,0.192 -1.617,0 -3.299,-0.733 -4.997,-2.18 -0.729,-0.614 -1.1,-1.462 -1.1,-2.52 0,-0.892 0.303,-1.626 0.901,-2.179 0.393,-0.365 1.131,-0.663 2.196,-0.883 l 1.125,-0.236 c 0.652,-0.135 1.118,-0.352 1.385,-0.646 0.266,-0.288 0.401,-0.66 0.401,-1.1 0,-0.578 -0.202,-1.049 -0.597,-1.398 -0.399,-0.352 -0.996,-0.531 -1.775,-0.531 -0.624,0 -1.245,0.146 -1.851,0.431 -0.599,0.283 -1.086,0.646 -1.451,1.079 l -0.041,1.32 h -0.956 l -0.004,-0.071 c -0.027,-0.376 -0.085,-0.765 -0.136,-1.151 -0.874,-0.624 -1.242,-0.796 -1.367,-0.796 -0.057,0 -0.211,0 -0.211,0.369 0,0.466 0.105,1.2 0.311,2.182 l 2.261,10.731 c 0.337,1.587 0.659,2.945 0.955,4.039 l 0.014,0.052 -0.43,0.302 -0.039,-0.014 c -2.044,-0.761 -3.887,-1.165 -5.474,-1.199 l -0.06,-0.001 -0.188,-0.938 0.094,0.002 c 0.401,0.009 0.746,0.013 1.032,0.013 0.481,0 0.801,-0.049 0.954,-0.146 0.145,-0.089 0.214,-0.223 0.214,-0.406 0,-0.125 -0.075,-0.663 -0.222,-1.598 l -0.43,-2.769 c -0.659,0.178 -1.209,0.268 -1.641,0.268 -0.686,0 -1.331,-0.129 -1.913,-0.386 -0.814,-0.349 -1.902,-1.022 -3.233,-1.997 -0.452,-0.328 -0.834,-0.769 -1.133,-1.307 -0.526,-0.928 -0.96,-2.038 -1.289,-3.303 -0.332,-1.261 -0.5,-2.413 -0.5,-3.421 0,-0.989 0.161,-1.717 0.478,-2.165 0.323,-0.454 0.743,-0.685 1.245,-0.685 0.774,0 1.789,0.525 3.017,1.562 1.449,1.213 2.712,2.762 3.76,4.608 l -0.404,-1.481 c -0.194,-0.721 -0.393,-1.59 -0.592,-2.584 -0.044,-0.238 -0.066,-0.48 -0.066,-0.721 0,-0.419 0.108,-0.756 0.319,-1.004 0.214,-0.253 0.49,-0.38 0.817,-0.38 0.226,0 0.476,0.05 0.746,0.148 0.403,0.141 0.903,0.405 1.483,0.782 l 1.261,0.924 c -0.07,-0.342 -0.129,-0.681 -0.219,-1.025 l -0.019,-0.068 0.067,-0.025 c 0.923,-0.313 1.62,-0.516 2.072,-0.604 0.451,-0.088 0.974,-0.132 1.55,-0.132 1.231,0 2.347,0.291 3.318,0.867 0.966,0.574 1.732,1.18 2.276,1.804 0.553,0.633 0.83,1.358 0.83,2.16 0,0.784 -0.236,1.445 -0.699,1.965 -0.473,0.517 -1.184,0.859 -2.113,1.019 l -0.732,0.118 c -1.019,0.17 -1.715,0.417 -2.071,0.73 -0.359,0.302 -0.535,0.698 -0.535,1.212 0,0.517 0.187,0.95 0.557,1.287 0.372,0.338 0.875,0.511 1.5,0.511 m -22.7192,0.2746 c 0.684,0 1.232,-0.234 1.634,-0.695 0.407,-0.465 0.612,-1.192 0.612,-2.164 0,-1.425 -0.217,-2.853 -0.646,-4.242 -0.426,-1.383 -0.929,-2.345 -1.494,-2.856 -0.419,-0.377 -0.911,-0.571 -1.456,-0.571 -0.787,0 -1.38,0.226 -1.766,0.669 -0.388,0.447 -0.584,1.215 -0.584,2.282 0,1.264 0.262,2.773 0.783,4.486 0.37,1.204 0.804,2.029 1.29,2.454 0.48,0.422 1.029,0.637 1.627,0.637 m 5.046,-0.577 c -0.321,0.593 -0.825,1.057 -1.501,1.382 -0.67,0.322 -1.519,0.486 -2.519,0.486 -1.318,0 -2.684,-0.436 -4.063,-1.295 -1.383,-0.862 -2.313,-1.789 -2.771,-2.758 -0.778,-1.635 -1.171,-3.351 -1.171,-5.101 0,-1.351 0.348,-2.383 1.035,-3.061 0.689,-0.679 1.76,-1.024 3.189,-1.024 1.026,0 2.018,0.217 2.949,0.648 1.32,0.613 2.37,1.306 3.125,2.059 0.579,0.592 1.1,1.501 1.541,2.707 0.442,1.204 0.664,2.422 0.664,3.622 0,0.96 -0.161,1.746 -0.478,2.335 m -76.8004,-1.9357 v 1.589 h -0.674 c 0.086,0.104 0.171,0.21 0.259,0.287 0.48,0.422 1.029,0.637 1.627,0.637 0.683,0 1.232,-0.234 1.635,-0.695 0.406,-0.465 0.611,-1.193 0.611,-2.164 0,-1.425 -0.217,-2.853 -0.646,-4.242 -0.427,-1.384 -0.929,-2.345 -1.492,-2.856 -0.422,-0.378 -0.912,-0.571 -1.458,-0.571 -0.786,0 -1.38,0.226 -1.766,0.669 -0.388,0.447 -0.585,1.215 -0.585,2.282 0,1.263 0.264,2.772 0.784,4.486 0.065,0.209 0.133,0.391 0.202,0.578 z m 34.425,1.213 c 0,-0.473 -0.175,-1.023 -0.521,-1.633 -0.347,-0.611 -0.786,-1.09 -1.307,-1.423 -0.509,-0.324 -1.412,-0.665 -2.688,-1.016 0.378,1.57 0.732,2.711 1.052,3.391 0.327,0.688 0.684,1.174 1.065,1.444 0.379,0.269 0.779,0.406 1.189,0.406 0.37,0 0.668,-0.108 0.885,-0.319 0.215,-0.211 0.325,-0.498 0.325,-0.85 m 23.265,-1.212 v 1.626 h -0.141 c 0.075,0.087 0.149,0.181 0.226,0.249 0.479,0.422 1.028,0.637 1.627,0.637 0.681,0 1.231,-0.234 1.635,-0.695 0.405,-0.465 0.61,-1.193 0.61,-2.164 0,-1.425 -0.217,-2.853 -0.645,-4.242 -0.428,-1.384 -0.93,-2.345 -1.494,-2.856 -0.42,-0.378 -0.91,-0.571 -1.457,-0.571 -0.786,0 -1.379,0.226 -1.765,0.669 -0.389,0.447 -0.585,1.215 -0.585,2.282 0,1.263 0.264,2.772 0.784,4.486 0.064,0.209 0.133,0.393 0.201,0.579 z m 6.757,1.935 c -0.32,0.592 -0.823,1.057 -1.501,1.381 -0.669,0.323 -1.518,0.486 -2.518,0.486 -1.317,0 -2.684,-0.435 -4.065,-1.295 -0.457,-0.286 -0.849,-0.582 -1.206,-0.881 h -8.613 v -1.626 h 2.966 c -0.003,-0.416 -0.053,-0.69 -0.594,-3.639 -0.174,-0.945 -0.398,-2.161 -0.687,-3.744 -0.87,-0.371 -1.607,-0.585 -2.746,-0.585 -1.679,0 -2.993,0.51 -3.904,1.518 -0.912,1.011 -1.375,2.571 -1.375,4.633 0,2.092 0.373,4.057 1.107,5.84 0.567,1.371 1.362,2.393 2.365,3.038 1.005,0.646 2.311,0.973 3.885,0.973 0.915,0 1.762,-0.107 2.52,-0.317 0.743,-0.207 1.42,-0.523 2.011,-0.939 l 0.013,-0.901 c -0.027,-0.62 -0.048,-1.184 -0.065,-1.69 l -0.003,-0.078 h 1.075 l 0.009,0.066 c 0.113,0.872 0.34,1.952 0.677,3.21 l 0.316,1.198 0.007,0.03 -0.132,0.232 -0.02,0.01 c -0.572,0.296 -1.371,0.547 -2.376,0.746 -1.001,0.2 -2.086,0.301 -3.221,0.301 -1.985,0 -4.012,-0.599 -6.026,-1.78 -2.012,-1.18 -3.509,-2.613 -4.45,-4.259 -0.34,-0.595 -0.598,-1.244 -0.816,-1.918 -0.076,0.494 -0.295,0.914 -0.67,1.242 -0.466,0.409 -1.113,0.615 -1.922,0.615 -0.871,0 -1.747,-0.223 -2.6,-0.663 -1.502,-0.778 -2.581,-1.515 -3.207,-2.191 -0.629,-0.677 -1.134,-1.608 -1.503,-2.766 -0.493,-1.558 -0.746,-2.944 -0.766,-4.137 -0.395,-0.319 -0.89,-0.661 -1.497,-1.025 -0.158,-0.103 -0.291,-0.159 -0.387,-0.159 -0.061,0 -0.224,0 -0.224,0.395 0,0.134 0.066,0.565 0.195,1.284 0.23,1.266 0.44,2.237 0.623,2.885 l 0.539,1.976 c 0.415,1.53 0.617,2.499 0.617,2.964 0,0.49 -0.091,0.855 -0.272,1.084 -0.184,0.235 -0.445,0.353 -0.772,0.353 -0.586,0 -1.354,-0.245 -2.28,-0.729 -0.925,-0.483 -1.881,-1.232 -2.841,-2.225 -0.845,-0.872 -1.652,-1.98 -2.404,-3.298 0.245,0.895 0.557,2.032 0.951,3.45 0.169,0.755 0.251,1.296 0.251,1.653 0,0.362 -0.095,0.647 -0.283,0.846 -0.188,0.201 -0.441,0.303 -0.749,0.303 -0.974,0 -2.295,-0.729 -3.923,-2.169 -1.164,-1.03 -2.29,-2.443 -3.351,-4.209 l 0.424,1.843 c 0.123,0.389 0.323,1.237 0.591,2.52 0.105,0.499 0.158,0.879 0.158,1.128 0,0.264 -0.082,0.479 -0.245,0.642 -0.163,0.163 -0.374,0.245 -0.631,0.245 -0.194,0 -0.438,-0.057 -0.747,-0.174 -0.425,-0.15 -0.947,-0.435 -1.551,-0.847 -0.328,-0.22 -1.045,-0.752 -2.1,-1.555 -0.071,0.249 -0.137,0.506 -0.247,0.709 -0.319,0.592 -0.824,1.057 -1.5,1.381 -0.67,0.323 -1.518,0.486 -2.518,0.486 -1.318,0 -2.685,-0.435 -4.065,-1.295 -0.478,-0.298 -0.881,-0.606 -1.251,-0.919 h -4.411 l 0.286,1.703 c 0.321,1.953 0.588,3.308 0.796,4.025 0.156,0.541 0.29,0.725 0.376,0.783 0.121,0.084 0.484,0.184 1.514,0.184 h 0.418 l 0.17,1.048 -0.096,-0.007 c -1.101,-0.077 -2.227,-0.117 -3.345,-0.117 -0.589,0 -2.275,0.04 -5.009,0.117 l -0.067,0.003 -0.168,-1.044 h 0.089 c 1.024,0 1.673,-0.052 1.928,-0.152 0.237,-0.092 0.351,-0.28 0.351,-0.57 0,-0.76 -0.149,-2.028 -0.444,-3.77 l -0.368,-2.203 h -7.601 l 0.41,2.4 c 0.432,2.386 0.728,3.718 0.879,3.957 0.141,0.224 0.507,0.338 1.087,0.338 h 1.033 l 0.169,1.045 -0.092,-0.004 c -1.744,-0.06 -2.87,-0.091 -3.346,-0.091 l -5.038,0.091 -0.066,0.002 -0.169,-1.043 h 1.359 c 0.426,0 0.72,-0.057 0.871,-0.169 0.146,-0.108 0.218,-0.284 0.218,-0.541 0,-0.544 -0.172,-1.866 -0.51,-3.93 l -1.379,-8.316 c -0.387,-2.291 -0.612,-2.974 -0.732,-3.144 -0.168,-0.235 -0.605,-0.355 -1.3,-0.355 h -0.863 l -0.169,-1.044 4.748,0.133 c 0.556,0 1.757,-0.043 3.672,-0.13 l 0.068,-0.003 0.169,1.044 h -0.429 c -0.848,0 -1.417,0.076 -1.691,0.227 -0.167,0.091 -0.248,0.266 -0.248,0.535 0,0.468 0.245,2.205 0.731,5.165 l 0.363,2.15 0.42,-0.011 3.341,0.027 h 3.326 l 0.487,-0.012 -0.58,-3.53 c -0.415,-2.493 -0.732,-3.912 -0.942,-4.217 -0.109,-0.151 -0.487,-0.334 -1.666,-0.334 h -0.483 l -0.171,-1.047 0.097,0.006 c 2.563,0.171 5.55,0.169 8.482,0 l 0.068,-0.005 0.184,1.046 h -0.451 c -0.964,0.077 -1.563,0.156 -1.78,0.232 -0.19,0.066 -0.283,0.245 -0.283,0.542 0,0.501 0.202,1.974 0.601,4.376 l 0.508,3.021 h 3.309 c -0.047,-0.083 -0.11,-0.165 -0.15,-0.249 -0.778,-1.635 -1.172,-3.352 -1.172,-5.102 0,-1.351 0.349,-2.382 1.037,-3.061 0.688,-0.678 1.76,-1.023 3.187,-1.023 1.025,0 2.018,0.217 2.951,0.647 1.319,0.614 2.37,1.307 3.124,2.06 0.581,0.591 1.099,1.5 1.541,2.707 0.442,1.204 0.665,2.422 0.665,3.622 0,0.229 -0.039,0.414 -0.057,0.623 0.929,0.748 1.375,0.954 1.56,0.954 0.071,0 0.121,-0.027 0.155,-0.075 0.063,-0.13 0.096,-0.321 0.096,-0.569 0,-0.249 -0.07,-0.77 -0.208,-1.544 -0.252,-1.4 -0.588,-2.886 -0.998,-4.417 -0.298,-1.105 -0.548,-1.964 -0.743,-2.55 l -0.318,-1.007 -0.012,-0.035 0.318,-0.429 0.05,0.016 c 1.128,0.31 2.103,0.469 2.898,0.469 h 0.07 l 0.006,0.068 c 0.051,0.69 0.253,1.694 0.598,2.99 0.345,1.29 0.861,2.501 1.534,3.599 0.914,1.493 1.77,2.565 2.544,3.186 0.489,0.389 0.882,0.586 1.168,0.586 0.126,0 0.223,-0.043 0.295,-0.13 0.075,-0.09 0.113,-0.228 0.113,-0.41 0,-0.36 -0.119,-1.134 -0.353,-2.302 -0.333,-1.641 -0.647,-2.929 -0.934,-3.825 -0.623,-2.004 -1.04,-3.275 -1.242,-3.777 l -0.018,-0.044 0.376,-0.42 0.043,0.007 c 1.259,0.234 2.196,0.353 2.782,0.353 h 0.072 l 0.005,0.07 c 0.051,0.706 0.269,1.704 0.645,2.967 0.378,1.263 0.81,2.333 1.285,3.179 0.475,0.845 1.045,1.627 1.694,2.321 0.648,0.693 1.222,1.174 1.71,1.431 0.233,0.124 0.441,0.188 0.62,0.188 0.107,0 0.19,-0.041 0.255,-0.122 0.067,-0.086 0.101,-0.223 0.101,-0.405 0,-0.238 -0.083,-0.716 -0.246,-1.421 l -1.464,-5.707 c -0.166,-0.718 -0.25,-1.251 -0.25,-1.588 0,-0.402 0.101,-0.717 0.301,-0.934 0.201,-0.221 0.459,-0.332 0.765,-0.332 0.244,0 0.587,0.083 1.047,0.252 0.449,0.167 1.025,0.478 1.715,0.927 l 1.777,1.268 c 0.124,-0.65 0.388,-1.187 0.804,-1.589 0.593,-0.57 1.441,-0.858 2.52,-0.858 0.527,0 1.124,0.103 1.77,0.311 0.646,0.207 1.441,0.574 2.367,1.091 l 2.225,1.418 0.053,0.032 -0.347,0.865 -0.077,-0.05 c -0.853,-0.565 -1.678,-0.994 -2.451,-1.281 -0.768,-0.284 -1.404,-0.428 -1.891,-0.428 -0.631,0 -1.122,0.166 -1.458,0.496 -0.337,0.329 -0.507,0.838 -0.507,1.513 0,0.535 0.086,1.111 0.258,1.715 1.672,0.27 3.098,0.686 4.24,1.236 1.158,0.557 1.975,1.183 2.431,1.859 0.051,0.077 0.089,0.157 0.135,0.235 -0.053,-0.494 -0.084,-1 -0.084,-1.525 0,-2.361 0.689,-4.22 2.052,-5.523 1.361,-1.305 3.36,-1.964 5.944,-1.964 0.758,0 1.523,0.058 2.276,0.174 0.741,0.114 1.143,0.182 2.186,0.49 1.393,0.41 1.648,0.637 1.672,0.663 l 0.017,0.016 1.379,8.093 h 1.738 c -0.046,-0.084 -0.111,-0.165 -0.151,-0.25 -0.778,-1.635 -1.171,-3.352 -1.171,-5.102 0,-1.351 0.348,-2.382 1.036,-3.061 0.688,-0.678 1.761,-1.023 3.187,-1.023 1.025,0 2.019,0.217 2.951,0.647 1.32,0.614 2.37,1.307 3.124,2.06 0.581,0.591 1.099,1.5 1.542,2.707 0.44,1.204 0.664,2.422 0.664,3.622 0,0.96 -0.162,1.746 -0.479,2.335"
         style="fill:#ce3544;fill-opacity:1;fill-rule:nonzero;stroke:none;stroke-width:0.765425"
         id="path1512" />
    </g>
  </g>
</svg>
