<?xml version="1.0" encoding="UTF-8" standalone="no"?>
<svg
   viewBox="0 0 250 250"
   version="1.1"
   id="svg8">
  <defs
     id="defs2">
    <clipPath
       id="clipPath867"
       clipPathUnits="userSpaceOnUse">
      <path
         id="path865"
         d="M 0,512 H 512 V 0 H 0 Z" />
    </clipPath>
  </defs>
  <rect
     style="fill:#5cdb95;stroke:none;stroke-width:1.13386;fill-opacity:1"
     id="rect2791"
     width="250"
     height="250"
     x="0"
     y="0"
     ry="31.12924" />
  <g
     style="stroke-width:3.16517;fill:#05386b;fill-opacity:1"
     transform="matrix(0.31593821,0,0,0.31593821,79.80755,120.85394)"
     id="g931">
    <path
       id="path947"
       d="m 284.14846,323.36741 c 0,-2.904 0.17997,-4.092 0.39993,-2.64 0.21996,1.452 0.21996,3.828 0,5.28 -0.21996,1.452 -0.39993,0.264 -0.39993,-2.64 z M -89.503414,269.04742 c 0.04606,-1.11836 0.273544,-1.34583 0.580001,-0.58001 0.277316,0.693 0.24321,1.52101 -0.07579,1.84001 -0.319001,0.31899 -0.545896,-0.24801 -0.504211,-1.26 z M 83.407944,237.44741 c 0.01958,-1.584 0.23472,-2.11578 0.478118,-1.18173 0.243399,0.93405 0.227395,2.23005 -0.03562,2.88 -0.262973,0.64995 -0.462115,-0.11427 -0.44255,-1.69827 z m 0.110323,-8.64 c 0.0058,-3.168 0.184608,-4.34826 0.398266,-2.6228 0.213657,1.72545 0.209251,4.31745 -0.0098,5.76 -0.219053,1.44254 -0.39386,0.0308 -0.388474,-3.1372 z M -101.79773,84.327418 c 0,-2.376 0.18721,-3.348 0.41603,-2.16 0.22882,1.188 0.22882,3.132 0,4.32 -0.22882,1.188 -0.41603,0.216 -0.41603,-2.16 z M 104.64176,-74.791224 c 8.87753,-0.158582 23.13353,-0.158284 31.68,6.63e-4 8.54647,0.158947 1.28303,0.288691 -16.14097,0.288326 -17.424,-3.65e-4 -24.416562,-0.130406 -15.53903,-0.288989 z m 91.28782,-207.841346 -1.82879,-2.16 2.16,1.82879 c 1.188,1.00583 2.16,1.97783 2.16,2.16 0,0.76824 -0.7726,0.20108 -2.49121,-1.82879 z"
       style="fill:#05386b;fill-opacity:1;stroke-width:3.16517" />
    <path
       id="path945"
       d="m 301.58888,274.88741 c -1.4e-4,-29.04 0.12187,-41.05858 0.27113,-26.70796 0.14926,14.35062 0.14938,38.11062 2.7e-4,52.8 -0.14913,14.68937 -0.27125,2.94796 -0.2714,-26.09204 z m -17.46663,39.84 c 0,-2.376 0.18722,-3.348 0.41604,-2.16 0.22882,1.188 0.22882,3.132 0,4.32 -0.22882,1.188 -0.41604,0.216 -0.41604,-2.16 z m -327.621454,-9.00246 c 0,-0.19934 0.756,-0.95534 1.68,-1.68 1.522617,-1.19411 1.556573,-1.16016 0.362457,0.36246 -1.254115,1.59912 -2.042457,2.10766 -2.042457,1.31754 z m 33.6757908,-25.15754 c 0.04608,-1.11835 0.2735424,-1.34582 0.5799936,-0.58 0.2773152,0.693 0.243216,1.52101 -0.075744,1.84 -0.319008,0.319 -0.5458944,-0.248 -0.5042112,-1.26 z m -21.9686388,-5.68 c 0.01958,-1.584 0.23472,-2.11578 0.478118,-1.18173 0.243398,0.93405 0.227395,2.23005 -0.03562,2.88 -0.262973,0.64995 -0.462115,-0.11427 -0.44255,-1.69827 z m 21.9686388,-4.87999 c 0.04608,-1.11836 0.2735424,-1.34583 0.5799936,-0.58001 0.2773152,0.693 0.243216,1.52101 -0.075744,1.84001 -0.319008,0.31899 -0.5458944,-0.24801 -0.5042112,-1.26 z M 341.70078,240.14566 c 0.924,-0.24146 2.436,-0.24146 3.36,0 0.924,0.24146 0.168,0.43903 -1.68,0.43903 -1.848,0 -2.604,-0.19757 -1.68,-0.43903 z m -406.079983,-0.96 c 0.924,-0.24146 2.435999,-0.24146 3.359999,0 0.924,0.24146 0.168,0.43903 -1.679999,0.43903 -1.848,0 -2.604,-0.19757 -1.68,-0.43903 z m 39.508789,-5.33825 -1.828791,-2.16 2.16,1.82879 c 1.188,1.00583 2.16,1.97783 2.16,2.16 0,0.76824 -0.772598,0.20108 -2.491209,-1.82879 z M 354.20225,84.327418 c 0,-2.376 0.18722,-3.348 0.41603,-2.16 0.22883,1.188 0.22883,3.132 0,4.32 -0.22881,1.188 -0.41603,0.216 -0.41603,-2.16 z M 184.98079,-78.275035 c 0,-0.199344 0.756,-0.955344 1.68,-1.68 1.52262,-1.194115 1.55657,-1.16016 0.36246,0.362458 -1.25412,1.59912 -2.04246,2.107661 -2.04246,1.317542 z"
       style="fill:#05386b;fill-opacity:1;stroke-width:3.16517" />
    <path
       id="path943"
       d="m 215.85236,208.16741 c 0,-1.32 0.2179,-1.86 0.48422,-1.2 0.26631,0.66 0.26631,1.74 0,2.4 -0.26632,0.66 -0.48422,0.12 -0.48422,-1.2 z m 0.25884,-24 c 0,-11.88 0.13781,-16.73999 0.30624,-10.8 0.16842,5.94 0.16842,15.66 0,21.6 -0.16843,5.94 -0.30624,1.08 -0.30624,-10.8 z m -0.004,-84.959993 c 7.8e-4,-11.087999 0.14052,-15.492518 0.31054,-9.787823 0.17002,5.704694 0.16938,14.776696 -9.6e-4,20.159996 -0.17081,5.38331 -0.30991,0.71583 -0.30912,-10.372173 z"
       style="fill:#05386b;fill-opacity:1;stroke-width:3.16517" />
    <path
       id="path941"
       d="m 30.862902,284.00741 c 0,-24.024 0.124637,-33.852 0.27697,-21.84 0.152333,12.012 0.152333,31.668 0,43.68 -0.152333,12.012 -0.27697,2.184 -0.27697,-21.84 z m 66.244894,-8.16 c 1.54e-4,-27.984 0.122755,-39.2936 0.272448,-25.13245 0.149683,14.16115 0.149559,37.05715 -2.88e-4,50.88 -0.149846,13.82284 -0.272323,2.23645 -0.27216,-25.74755 z m -122.367001,41.39754 c 0,-0.19934 0.756,-0.95534 1.68,-1.68 1.522618,-1.19411 1.556573,-1.16016 0.362458,0.36246 -1.254115,1.59912 -2.042458,2.10766 -2.042458,1.31754 z m 394.948775,-28.67754 -1.82879,-2.16 2.16,1.82879 c 2.02987,1.71861 2.59703,2.49121 1.82879,2.49121 -0.18217,0 -1.15417,-0.972 -2.16,-2.16 z m -132.62878,-7.19732 c 6.732,-0.16502 17.748,-0.16502 24.48,0 6.732,0.16502 1.224,0.30005 -12.24,0.30005 -13.464,0 -18.972,-0.13503 -12.24,-0.30005 z M 373.14078,139.64496 c 0,-0.19935 0.756,-0.95535 1.68,-1.68 1.52262,-1.19412 1.55658,-1.16016 0.36246,0.36246 -1.25411,1.59912 -2.04246,2.10766 -2.04246,1.31754 z M 215.77658,75.127421 c 0.0461,-1.118352 0.27354,-1.345824 0.57999,-0.580003 0.27732,0.692995 0.24322,1.521005 -0.0757,1.840003 -0.319,0.318999 -0.5459,-0.248006 -0.50421,-1.26 z m -99.71779,-27.03093 c 3.5409,-0.184186 9.5889,-0.185414 13.44,-0.0029 3.8511,0.182688 0.954,0.333379 -6.438,0.334877 -7.392,0.0019 -10.5429,-0.147975 -7.002,-0.332151 z"
       style="fill:#05386b;fill-opacity:1;stroke-width:3.16517" />
    <path
       id="path939"
       d="m 203.66779,276.80741 c 1.6e-4,-27.984 0.12276,-39.2936 0.27245,-25.13245 0.14968,14.16115 0.14956,37.05715 -2.9e-4,50.88 -0.14984,13.82284 -0.27232,2.23645 -0.27216,-25.74755 z m -213.3442752,-1.44 c 0,-1.848 0.197568,-2.604 0.4390368,-1.68 0.2414592,0.924 0.2414592,2.436 0,3.36 -0.2414688,0.924 -0.4390368,0.168 -0.4390368,-1.68 z M 328.74078,266.97966 c 2.772,-0.19392 7.308,-0.19392 10.08,0 2.772,0.19392 0.504,0.35259 -5.04,0.35259 -5.544,0 -7.812,-0.15867 -5.04,-0.35259 z M 8.1463751,240.09245 c 4.3810749,-0.17829 11.2930749,-0.17729 15.3599999,0.002 4.066934,0.1795 0.482419,0.32538 -7.965581,0.32416 -8.4479997,-9.6e-4 -11.7754844,-0.14808 -7.3944189,-0.32637 z m 51.7944179,7.3e-4 c 4.356,-0.17788 11.483999,-0.17788 15.839999,0 4.356,0.17789 0.792,0.32343 -7.92,0.32343 -8.711999,0 -12.275999,-0.14554 -7.919999,-0.32343 z m 179.039997,-0.004 c 7.788,-0.16135 20.532,-0.16135 28.32,0 7.788,0.16137 1.416,0.29339 -14.16,0.29339 -15.576,0 -21.948,-0.13202 -14.16,-0.29339 z m 88.79999,0.015 c 2.244,-0.20211 5.916,-0.20211 8.16,0 2.244,0.20212 0.408,0.36749 -4.08,0.36749 -4.488,0 -6.324,-0.16537 -4.08,-0.36749 z m 20.64,0.0412 c 0.924,-0.24146 2.436,-0.24146 3.36,0 0.924,0.24147 0.168,0.43904 -1.68,0.43904 -1.848,0 -2.604,-0.19757 -1.68,-0.43904 z M 108.33237,44.967419 c 0,-1.32 0.2179,-1.86 0.48421,-1.2 0.26631,0.66 0.26631,1.74 0,2.4 -0.26631,0.66 -0.48421,0.12 -0.48421,-1.2 z"
       style="fill:#05386b;fill-opacity:1;stroke-width:3.16517" />
    <path
       id="path937"
       d="m 181.58889,274.88741 c -1.5e-4,-29.04 0.12186,-41.05858 0.27112,-26.70796 0.14926,14.35062 0.14939,38.11062 2.7e-4,52.8 -0.14913,14.68937 -0.27125,2.94796 -0.27139,-26.09204 z m -262.650546,28.56 c -1.194116,-1.52262 -1.160161,-1.55657 0.362453,-0.36246 1.599118,1.25412 2.10766,2.04246 1.317547,2.04246 -0.19935,0 -0.955349,-0.756 -1.68,-1.68 z M 345.07198,267.00844 c 1.19415,-0.22962 2.92215,-0.2209 3.84,0.0194 0.91784,0.24028 -0.0592,0.42816 -2.1712,0.41751 -2.112,-0.0107 -2.86296,-0.20726 -1.6688,-0.43688 z M 20.580794,120.0877 c 22.307999,-0.14362 58.811998,-0.14362 81.119996,0 22.308,0.14361 4.056,0.26112 -40.559997,0.26112 -44.615999,0 -62.8679984,-0.11751 -40.559999,-0.26112 z m 218.399996,5.6e-4 c 12.54,-0.15157 33.06,-0.15157 45.6,0 12.54,0.15159 2.28,0.27561 -22.8,0.27561 -25.08,0 -35.34,-0.12402 -22.8,-0.27561 z m -286.442452,-9.60084 c -1.194115,-1.52262 -1.16016,-1.55658 0.362458,-0.36246 0.924,0.72466 1.68,1.48066 1.68,1.68 0,0.79012 -0.788342,0.28158 -2.042458,-1.31754 z M 212.58079,-119.91169 c 12.276,-0.15195 32.364,-0.15195 44.64,0 12.276,0.15195 2.232,0.27627 -22.32,0.27627 -24.552,0 -34.596,-0.12432 -22.32,-0.27627 z m -70.98,-141.05667 c 0.693,-0.27732 1.521,-0.24321 1.84,0.0758 0.319,0.319 -0.248,0.5459 -1.26,0.50421 -1.11835,-0.0461 -1.34582,-0.27354 -0.58,-0.58 z m -54.539998,-18.90666 c 0,-0.19935 0.756,-0.95535 1.68,-1.68 1.522617,-1.19412 1.556572,-1.16016 0.362457,0.36245 -1.254115,1.59912 -2.042457,2.10766 -2.042457,1.31755 z"
       style="fill:#05386b;fill-opacity:1;stroke-width:3.16517" />
    <path
       id="path935"
       d="m 37.860793,327.46449 c 2.244,-0.20211 5.916,-0.20211 8.16,0 2.244,0.20212 0.408,0.36749 -4.08,0.36749 -4.488,0 -6.324,-0.16537 -4.08,-0.36749 z m 67.199997,0.0254 c 1.188,-0.22883 3.132,-0.22883 4.32,0 1.188,0.22881 0.216,0.41603 -2.16,0.41603 -2.376,0 -3.348,-0.18722 -2.16,-0.41603 z m 10.62,0.0217 c 0.693,-0.27731 1.52101,-0.24321 1.84,0.0758 0.319,0.319 -0.248,0.54589 -1.26,0.50421 -1.11835,-0.0461 -1.34582,-0.27354 -0.58,-0.57999 z m 52.28896,-0.0511 c 2.52394,-0.19841 6.41194,-0.19601 8.64,0.006 2.22808,0.20133 0.16304,0.36367 -4.58896,0.36074 -4.752,-0.003 -6.57496,-0.16765 -4.05104,-0.36606 z m 57.09104,-0.0119 c 10.164,-0.15549 26.796,-0.15549 36.96,0 10.164,0.15549 1.848,0.28272 -18.48,0.28272 -20.328,0 -28.644,-0.12723 -18.48,-0.28272 z m 81.14896,0.0119 c 2.52393,-0.19841 6.41193,-0.19601 8.64,0.006 2.22807,0.20133 0.16303,0.36367 -4.58897,0.36074 -4.752,-0.003 -6.57496,-0.16765 -4.05103,-0.36606 z m 72.01096,-0.006 c 3.58595,-0.18521 9.20195,-0.18383 12.48,0.003 3.27803,0.1869 0.34407,0.33843 -6.51993,0.33675 -6.864,-0.002 -9.54604,-0.15459 -5.96007,-0.3398 z M 239.52012,310.16902 c 8.08463,-0.16074 21.04463,-0.16038 28.8,7.9e-4 7.75536,0.16118 1.14067,0.2927 -14.69933,0.29226 -15.84,-4.3e-4 -22.18531,-0.13229 -14.10067,-0.29305 z m 139.2582,-79.68161 c -1.19411,-1.52261 -1.16015,-1.55657 0.36246,-0.36245 0.924,0.72465 1.68,1.48065 1.68,1.68 0,0.79011 -0.78834,0.28157 -2.04246,-1.31755 z m -445.077523,-9.54175 c 0.924,-0.24146 2.436,-0.24146 3.36,0 0.923999,0.24147 0.168,0.43903 -1.68,0.43903 -1.848,0 -2.604,-0.19756 -1.68,-0.43903 z m 7.679999,0 c 0.924,-0.24146 2.436,-0.24146 3.36,0 0.924,0.24147 0.168,0.43903 -1.68,0.43903 -1.848,0 -2.604,-0.19756 -1.68,-0.43903 z M 142.18856,140.96742 c 0,-11.352 0.13887,-15.996 0.30859,-10.32 0.16973,5.676 0.16973,14.964 0,20.64 -0.16972,5.676 -0.30859,1.032 -0.30859,-10.32 z M -55.903412,88.567421 c 0.04608,-1.118352 0.273543,-1.345824 0.579994,-0.580003 0.277315,0.692995 0.243216,1.521004 -0.07574,1.840003 -0.319008,0.318998 -0.545894,-0.248007 -0.504211,-1.26 z M 136.24351,44.967419 c 0,-1.848 0.19757,-2.604 0.43904,-1.68 0.24146,0.924 0.24146,2.436 0,3.36 -0.24147,0.924 -0.43904,0.168 -0.43904,-1.68 z M 88.402286,-88.472577 c 0,-7.656 0.149088,-10.787999 0.331315,-6.96 0.182218,3.828 0.182218,10.092 0,13.92 -0.182227,3.828 -0.331315,0.696 -0.331315,-6.96 z"
       style="fill:#05386b;fill-opacity:1;stroke-width:3.16517" />
    <path
       id="path933"
       d="m -69.419203,329.17629 c -23.282664,-4.30005 -36.202107,-17.05441 -40.871477,-40.34923 -1.2084,-6.02852 -1.4768,-10.51141 -1.03457,-17.28 1.09199,-16.71374 5.51653,-27.74143 14.89212,-37.11702 9.475407,-9.47541 18.947967,-12.88874 35.83599,-12.91311 9.468557,-0.0136 12.283219,0.35285 18.01319,2.34553 21.74064,7.56066 32.651404,24.7715 32.651404,51.50495 0,27.21274 -12.132038,45.67167 -34.294367,52.17899 -6.267302,1.8402 -19.439298,2.6924 -25.19229,1.62989 z m 21.599999,-19.9685 c 12.607747,-6.55896 18.77207,-22.85714 15.972124,-42.22953 -0.668601,-4.62596 -1.989494,-10.16079 -2.935315,-12.29963 -4.237516,-9.58249 -12.512668,-15.02353 -23.764223,-15.62535 -9.709113,-0.51932 -15.672969,1.6293 -21.952612,7.90894 -6.518477,6.51848 -8.218547,11.45103 -8.827321,25.61136 -0.527185,12.26256 0.770374,19.00872 5.0898,26.46248 2.613802,4.51046 9.822063,10.21481 14.827599,11.734 5.325033,1.61616 17.121091,0.76259 21.589948,-1.56227 z m 79.599454,18.07962 c -0.219696,-0.22 -0.399456,-19.984 -0.399456,-43.92 v -43.52 h -15.84 -15.83999945 v -8.64 -8.64 H 41.460793 83.220792 v 8.64 8.64 H 67.870479 52.520166 l -0.249687,43.78792 -0.249686,43.78792 -9.920544,0.13207 c -5.456294,0.0727 -10.100294,-0.0479 -10.319999,-0.26791 z m 66.244529,0.004 c -0.222192,-0.22204 -0.403988,-23.87584 -0.403988,-52.56384 v -52.16 h 10.559999 10.56 v 20.64 20.64 h 20.64 20.64 v -20.64 -20.64 h 10.56 10.56 l -0.002,52.56 -0.002,52.56 -10.31768,-0.0613 -10.31848,-0.0614 -0.25738,-22.73862 -0.25737,-22.73862 h -20.62263 -20.62262 v 22.56 c 0,20.80492 -0.13069,22.56833 -1.68,22.6671 -5.27132,0.33605 -18.693147,0.31974 -19.036011,-0.0231 z m 106.556301,-0.004 c -0.22016,-0.22 -0.40029,-23.872 -0.40029,-52.56 v -52.16 h 38.88 38.88 v 8.64 8.64 h -28.32 -28.32 v 11.98458 11.98457 l 26.16,0.25542 26.16,0.25543 0.27737,8.4 0.27738,8.4 h -26.43738 -26.43737 v 14.90596 14.90595 l 29.04,-0.0806 29.04,-0.0805 v 8.26734 8.26733 l -39.19971,0.18727 c -21.55984,0.10299 -39.37984,0.008 -39.6,-0.21274 z m 105.9197,0.12263 -8.4,-0.27739 v -52.28261 -52.28263 l 27.12,0.0335 c 27.81918,0.0344 38.57452,1.02581 44.52859,4.10478 4.6835,2.42193 10.50793,9.51154 12.33615,15.01578 2.57442,7.75085 1.70312,18.37778 -2.0592,25.11559 -3.25867,5.83581 -9.65631,10.7864 -16.01449,12.39225 -7.82822,1.97712 -7.8359,1.99998 -2.14797,6.39167 2.85901,2.20745 6.98782,6.43608 9.17513,9.39693 4.66996,6.32149 20.37619,31.3551 19.94372,31.78758 -0.16334,0.16333 -5.60558,0.37021 -12.09387,0.45971 l -11.79687,0.16273 -11.84929,-17.63026 c -12.17306,-18.11201 -16.55409,-23.45098 -20.46267,-24.93702 -1.23432,-0.46929 -5.23199,-0.85325 -8.8837,-0.85325 h -6.63948 l -0.25803,21.76095 c -0.24905,21.0047 -0.32475,21.7637 -2.17802,21.84 -1.056,0.0435 -5.7,-0.0458 -10.32,-0.19832 z m 48.95096,-61.9497 c 6.45338,-3.42874 8.6119,-11.05304 5.15244,-18.19935 -3.02985,-6.25882 -4.76494,-6.77309 -24.3434,-7.21525 l -17.04,-0.38483 v 14.12214 14.12214 l 16.56,-0.39599 c 13.27367,-0.31741 17.17737,-0.72401 19.67096,-2.04886 z M 206.92748,198.41668 c -28.55539,-40.79925 -38.4782,-55.0907 -39.24406,-56.52172 -0.67886,-1.26846 4.37437,-9.00293 23.33543,-35.71716 l 24.20194,-34.098081 0.48,24.123849 0.48,24.123852 h 48.48 c 43.40558,0 49.25453,-0.18177 55.87981,-1.73655 13.72136,-3.22004 25.63015,-11.09359 31.22889,-20.64712 2.16373,-3.692121 2.63964,-5.801366 2.95321,-13.08886 0.44286,-10.291642 -1.36053,-16.724822 -7.92692,-28.277529 -4.46894,-7.862525 -34.91116,-62.896846 -59.98321,-108.439379 -8.53536,-15.504191 -15.39124,-28.559893 -15.2353,-29.012668 0.31232,-0.906854 32.20768,-21.059394 33.24041,-21.002394 0.79942,0.0442 81.09792,143.489923 85.29899,152.378726 9.44814,19.990742 9.98643,42.758245 1.46929,62.145774 -9.10793,20.73234 -28.15586,38.65957 -49.26669,46.36803 l -7.09849,2.59197 -59.7436,0.2808 -59.7436,0.28081 -0.2564,24.04846 -0.25639,24.04847 z m -241.248278,-37.4263 c -32.102255,-4.1162 -58.701723,-29.30642 -64.942874,-61.50222 -2.074778,-10.703021 -2.267148,-16.731168 -0.818768,-25.657987 1.565092,-9.646204 3.932535,-15.565977 13.654406,-34.142754 4.973772,-9.504 16.883484,-32.2303092 26.46603,-50.502901 9.582538,-18.272601 17.422733,-33.6086 17.422656,-34.079999 -7.7e-5,-0.471408 -5.724077,-3.551116 -12.72,-6.843801 -6.995923,-3.292685 -16.823855,-7.915641 -21.839855,-10.273228 -5.016,-2.357597 -8.688,-4.309613 -8.16,-4.337827 0.528,-0.02822 18.888,-3.525648 40.799999,-7.772083 21.911999,-4.246436 41.1853522,-7.963411 42.829669,-8.259936 2.6289887,-0.474096 3.1118111,-0.208032 4.0020191,2.205321 0.9114143,2.470867 21.8410359,47.199272 32.2796729,68.984456 2.276976,4.7519996 4.044268,8.7601435 3.927312,8.9069851 C 38.462512,-2.1387427 28.62928,-6.7827426 16.727853,-12.605594 4.8264168,-18.428435 -5.2897845,-23.192579 -5.7526101,-23.192579 c -1.1094527,0 -43.7392979,86.161927 -46.3099379,93.599997 -9.341568,27.029558 1.100458,46.297972 26.778163,49.413112 4.965407,0.60239 39.09525,0.98689 87.599997,0.98689 h 79.465178 v 20.64 20.64 l -84.719997,-0.12144 c -46.595999,-0.0668 -87.717713,-0.50581 -91.381591,-0.9756 z M 109.14079,42.596478 c 0,-7.64711 2.61409,-24.315234 5.80105,-36.9890578 6.52754,-25.9585142 20.62939,-55.6094762 36.41156,-76.5599972 l 3.07349,-4.08 H 121.70384 88.980792 v -13.44 -13.440003 h 49.439998 49.44 v 10.283667 10.283664 l -3.75089,3.876336 c -9.69429,10.018492 -23.16071,31.937634 -31.23421,50.839525 -8.07656,18.9090999 -14.15399,42.708843 -15.87717,62.176481 -0.52872,5.973177 -0.965,11.184326 -0.96952,11.580326 -0.005,0.396 -6.05621,0.72 -13.44821,0.72 h -13.44 z M 11.700794,-107.84108 c -9.5039995,-4.77809 -17.6745785,-9.05503 -18.1568441,-9.50431 -0.5144255,-0.47924 2.7091392,-7.08071 7.7993278,-15.97203 4.771891,-8.33533 23.6937013,-41.50715 42.0484693,-73.71515 18.354767,-32.208 35.209602,-61.1629 37.455195,-64.34422 11.319475,-16.03623 27.481668,-26.72533 46.533848,-30.77582 16.83011,-3.57808 37.61107,0.65438 57.31473,11.6733 11.62794,6.50271 12.1651,7.26923 70.72179,100.91721 5.34791,8.55276 10.12208,15.57276 10.60925,15.6 0.48718,0.0273 9.9431,-6.46621 21.01317,-14.42987 11.07008,-7.96367 19.94069,-13.90367 19.71248,-13.2 -0.22822,0.70367 -6.44415,19.31356 -13.81318,41.35533 l -13.39824,40.07593 -44.01921,0.004 -44.01921,0.004 6.57921,-5.0597 c 3.61857,-2.78283 12.30321,-9.34071 19.29921,-14.57305 6.996,-5.23236 12.72,-9.87673 12.72,-10.32085 0,-1.02518 -7.89593,-14.6134 -42.42815,-73.01525 -13.64324,-23.07338 -18.81897,-29.29643 -27.96972,-33.62911 -13.98258,-6.62044 -27.8297,-5.04167 -41.07802,4.68349 -6.48023,4.75693 -10.92204,11.39877 -26.26559,39.27493 -7.26552,13.2 -15.266044,27.672 -17.778959,32.16 -2.512916,4.488 -5.756295,10.32 -7.207517,12.96 -18.735955,34.08353 -37.231765,67.33574 -37.745346,67.859466 -0.35568,0.362716 -8.422694,-3.249866 -17.926694,-8.027976 z"
       style="fill:#05386b;fill-opacity:1;stroke-width:3.16517" />
  </g>
</svg>
