<svg height="150" viewBox="0 0 40 58" width="150" xmlns="http://www.w3.org/2000/svg"><g id="Page-1" fill="none" fill-rule="evenodd"><g id="005---French-Man" fill-rule="nonzero"><path id="Shape" d="m40 46v11c0 .5522847-.4477153 1-1 1h-38c-.55228475 0-1-.4477153-1-1v-11c-.00024597-.3342401.01979085-.6681872.06-1 .50408318-4.0010381 3.90733288-7.0013842 7.94-7h24c4.0326671-.0013842 7.4359168 2.9989619 7.94 7 .0402091.3318128.060246.6657599.06 1z" fill="#ecf0f1"/><path id="Shape" d="m9 49v9h-2v-9c0-.5522847.44771525-1 1-1s1 .4477153 1 1z" fill="#d1d4d1"/><path id="Shape" d="m33 49v9h-2v-9c0-.5522847.4477153-1 1-1s1 .4477153 1 1z" fill="#d1d4d1"/><path id="Shape" d="m40 46 .0000022 5h-40.00000444l.00000224-5c-.00024597-.3342401.01979085-.6681872.06-1h39.88c.0402091.3318128.060246.6657599.06 1z" fill="#4482c3"/><g fill="#f9c795"><path id="Shape" d="m7 23h3v-6h-3c-1.1045695 0-2 .8954305-2 2v2c0 1.1045695.8954305 2 2 2z"/><path id="Shape" d="m33 23h-3v-6h3c1.1045695 0 2 .8954305 2 2v2c0 1.1045695-.8954305 2-2 2z"/><path id="Shape" d="m25 40v-10h-10v9.948z"/></g><path id="Shape" d="m31 6v17c0 4.9705627-4.0294373 9-9 9h-4c-4.9705627 0-9-4.0294373-9-9v-14z" fill="#fdd7ad"/><path id="Shape" d="m23 26c-1.0816928.0493526-2.1454918-.2889355-3-.954-.8545082.6650645-1.9183072 1.0033526-3 .954-1.5133262-.0148788-2.9161541-.7951477-3.727-2.073-.6502863-1.0153214-.714209-2.299102-.168-3.374.1596977-.3197527.4778505-.5300187.8346134-.5515928.3567628-.021574.6979349.1488214.895.4470001.1970651.2981786.2200843.67884.0603866.9985927-.2399786.4542854-.2095921 1.0039358.079 1.429.4504809.6838776 1.207335 1.103771 2.026 1.124 1.3 0 2-.515 2-1 0-.5522847.4477153-1 1-1s1 .4477153 1 1c0 .485.7 1 2 1 .818665-.020229 1.5755191-.4401224 2.026-1.124.2885921-.4250642.3189786-.9747146.079-1.429-.2468713-.4942948-.0462948-1.0951287.448-1.342.4942949-.2468713 1.0951287-.0462948 1.342.448.546209 1.074898.4822863 2.3586786-.168 3.374-.8108459 1.2778523-2.2136738 2.0581212-3.727 2.073z" fill="#3f5c6c"/><path id="Shape" d="m31 10.2s2-.2 2-4.2-6-6-13-6-17 4-17 9c0 6 5 4 6 4s2-3.8 11-4.8 11 2 11 2z" fill="#4482c3"/><path id="Shape" d="m20.6 40.1c.49 1.06 1.02 2.67.4 3.9-.2009785.3895107-.4841753.7307117-.83 1-.9376953.6329414-2.0388504.9803089-3.17 1 0-.35.01-.68.04-1 .1127717-2.0811738.9731908-4.0516507 2.423-5.549z" fill="#c03a2b"/><path id="Shape" d="m20 40s1-3-6-5c-1.3563945.8596962-2.1260798 2.3990667-2 4 0 0 3 2 8 1z" fill="#e64c3c"/><path id="Shape" d="m20.02 39.89c.02.07.03.11.03.11.19.04.37.07.55.1 2.5353927.5218173 5.173602.1322831 7.45-1.1.0025597-.3354657-.0275828-.6703822-.09-1-.145257-1.2391602-.8487042-2.3440511-1.91-3-.37.11-.73.22-1.05.33-2.5.85-3.77 1.83-4.4 2.67-.2477008.3256732-.4309787.6956231-.54 1.09v.01c-.0189524.0615919-.0290534.1255651-.03.19" fill="#e64c3c"/></g></g></svg>